ISO-10303-21;
HEADER;
FILE_DESCRIPTION((''),'2;1');
FILE_NAME('RESERVOIR_ASSEMBLY_ASM','2024-02-20T14:07:39',('SVIVEK'),(''),
'CREO PARAMETRIC BY PTC INC, 2020184','CREO PARAMETRIC BY PTC INC, 2020184','');
FILE_SCHEMA(('AUTOMOTIVE_DESIGN { 1 0 10303 214 1 1 1 1 }'));
ENDSEC;
DATA;
#43=DIRECTION('',(0.E0,0.E0,1.E0));
#44=VECTOR('',#43,1.E2);
#45=CARTESIAN_POINT('',(1.3E1,0.E0,-5.E1));
#46=LINE('',#45,#44);
#47=DRAUGHTING_PRE_DEFINED_CURVE_FONT('continuous');
#48=CURVE_STYLE('',#47,POSITIVE_LENGTH_MEASURE(2.E-2),#9);
#49=PRESENTATION_STYLE_ASSIGNMENT((#48));
#50=STYLED_ITEM('',(#49),#46);
#51=CARTESIAN_POINT('',(0.E0,0.E0,-5.E1));
#52=DIRECTION('',(0.E0,0.E0,-1.E0));
#53=DIRECTION('',(1.E0,0.E0,0.E0));
#54=AXIS2_PLACEMENT_3D('',#51,#52,#53);
#56=CURVE_STYLE('',#47,POSITIVE_LENGTH_MEASURE(2.E-2),#9);
#57=PRESENTATION_STYLE_ASSIGNMENT((#56));
#58=STYLED_ITEM('',(#57),#55);
#59=CARTESIAN_POINT('',(0.E0,0.E0,-5.E1));
#60=DIRECTION('',(0.E0,0.E0,-1.E0));
#61=DIRECTION('',(-1.E0,0.E0,0.E0));
#62=AXIS2_PLACEMENT_3D('',#59,#60,#61);
#64=CURVE_STYLE('',#47,POSITIVE_LENGTH_MEASURE(2.E-2),#9);
#65=PRESENTATION_STYLE_ASSIGNMENT((#64));
#66=STYLED_ITEM('',(#65),#63);
#67=CARTESIAN_POINT('',(0.E0,0.E0,-5.E1));
#68=DIRECTION('',(0.E0,0.E0,1.E0));
#69=DIRECTION('',(1.E0,0.E0,0.E0));
#70=AXIS2_PLACEMENT_3D('',#67,#68,#69);
#72=CURVE_STYLE('',#47,POSITIVE_LENGTH_MEASURE(2.E-2),#9);
#73=PRESENTATION_STYLE_ASSIGNMENT((#72));
#74=STYLED_ITEM('',(#73),#71);
#75=CARTESIAN_POINT('',(0.E0,0.E0,-5.E1));
#76=DIRECTION('',(0.E0,0.E0,1.E0));
#77=DIRECTION('',(-1.E0,0.E0,0.E0));
#78=AXIS2_PLACEMENT_3D('',#75,#76,#77);
#80=CURVE_STYLE('',#47,POSITIVE_LENGTH_MEASURE(2.E-2),#9);
#81=PRESENTATION_STYLE_ASSIGNMENT((#80));
#82=STYLED_ITEM('',(#81),#79);
#83=DIRECTION('',(0.E0,0.E0,1.E0));
#84=VECTOR('',#83,1.E2);
#85=CARTESIAN_POINT('',(-1.3E1,0.E0,-5.E1));
#86=LINE('',#85,#84);
#87=CURVE_STYLE('',#47,POSITIVE_LENGTH_MEASURE(2.E-2),#9);
#88=PRESENTATION_STYLE_ASSIGNMENT((#87));
#89=STYLED_ITEM('',(#88),#86);
#90=CARTESIAN_POINT('',(4.E0,1.236931687685E1,0.E0));
#91=CARTESIAN_POINT('',(4.E0,1.236931687685E1,-2.520709311930E-1));
#92=CARTESIAN_POINT('',(3.955276502086E0,1.238398799685E1,-7.538524132620E-1));
#93=CARTESIAN_POINT('',(3.718648631844E0,1.245814695328E1,-1.547034951234E0));
#94=CARTESIAN_POINT('',(3.344965838626E0,1.256495004952E1,-2.238237074886E0));
#95=CARTESIAN_POINT('',(2.853064137243E0,1.268718934598E1,-2.839230001303E0));
#96=CARTESIAN_POINT('',(2.252534618903E0,1.280901037523E1,-3.336120679712E0));
#97=CARTESIAN_POINT('',(1.557944753994E0,1.291343229873E1,-3.712839829407E0));
#98=CARTESIAN_POINT('',(7.854950037392E-1,1.298447243778E1,-3.950059337541E0));
#99=CARTESIAN_POINT('',(-2.830052741557E-2,1.300865436260E1,-4.027864325516E0));
#100=CARTESIAN_POINT('',(-8.457010772703E-1,1.298071735261E1,
-3.937856885592E0));
#101=CARTESIAN_POINT('',(-1.612986197221E0,1.290650362542E1,-3.688952831812E0));
#102=CARTESIAN_POINT('',(-2.296319480751E0,1.280099275330E1,-3.305327876126E0));
#103=CARTESIAN_POINT('',(-2.881264542966E0,1.268060879919E1,-2.809535245651E0));
#104=CARTESIAN_POINT('',(-3.362041119558E0,1.256027673957E1,-2.211533955359E0));
#105=CARTESIAN_POINT('',(-3.726314895815E0,1.245578178612E1,-1.526405246425E0));
#106=CARTESIAN_POINT('',(-3.956312997291E0,1.238364095596E1,
-7.443567489623E-1));
#107=CARTESIAN_POINT('',(-4.E0,1.236931687685E1,-2.488454607955E-1));
#108=CARTESIAN_POINT('',(-4.E0,1.236931687685E1,0.E0));
#110=CURVE_STYLE('',#47,POSITIVE_LENGTH_MEASURE(2.E-2),#9);
#111=PRESENTATION_STYLE_ASSIGNMENT((#110));
#112=STYLED_ITEM('',(#111),#109);
#113=CARTESIAN_POINT('',(-4.E0,1.236931687685E1,0.E0));
#114=CARTESIAN_POINT('',(-4.E0,1.236931687685E1,2.518250733220E-1));
#115=CARTESIAN_POINT('',(-3.955372623038E0,1.238395647207E1,7.532355459776E-1));
#116=CARTESIAN_POINT('',(-3.718936568829E0,1.245805943847E1,1.546338002524E0));
#117=CARTESIAN_POINT('',(-3.345390465348E0,1.256483567097E1,2.237600783410E0));
#118=CARTESIAN_POINT('',(-2.853660150299E0,1.268705103091E1,2.838608703393E0));
#119=CARTESIAN_POINT('',(-2.253514950804E0,1.280883125381E1,3.335434737228E0));
#120=CARTESIAN_POINT('',(-1.559131925570E0,1.291329046761E1,3.712355749119E0));
#121=CARTESIAN_POINT('',(-7.862788169540E-1,1.298443907234E1,3.949953310994E0));
#122=CARTESIAN_POINT('',(2.836518869062E-2,1.300867407142E1,4.027927172345E0));
#123=CARTESIAN_POINT('',(8.466280094653E-1,1.298067098854E1,3.937708618503E0));
#124=CARTESIAN_POINT('',(1.614283259694E0,1.290634199701E1,3.688397210299E0));
#125=CARTESIAN_POINT('',(2.297371216035E0,1.280079702159E1,3.304571680751E0));
#126=CARTESIAN_POINT('',(2.881907595238E0,1.268045806688E1,2.808850046594E0));
#127=CARTESIAN_POINT('',(3.362479997098E0,1.256015770278E1,2.210863230057E0));
#128=CARTESIAN_POINT('',(3.726610170640E0,1.245569186288E1,1.525673921083E0));
#129=CARTESIAN_POINT('',(3.956401545887E0,1.238361182564E1,7.437614382733E-1));
#130=CARTESIAN_POINT('',(4.E0,1.236931687685E1,2.486100520983E-1));
#131=CARTESIAN_POINT('',(4.E0,1.236931687685E1,0.E0));
#133=CURVE_STYLE('',#47,POSITIVE_LENGTH_MEASURE(2.E-2),#9);
#134=PRESENTATION_STYLE_ASSIGNMENT((#133));
#135=STYLED_ITEM('',(#134),#132);
#136=CARTESIAN_POINT('',(0.E0,0.E0,5.E1));
#137=DIRECTION('',(0.E0,0.E0,-1.E0));
#138=DIRECTION('',(1.E0,0.E0,0.E0));
#139=AXIS2_PLACEMENT_3D('',#136,#137,#138);
#141=CURVE_STYLE('',#47,POSITIVE_LENGTH_MEASURE(2.E-2),#9);
#142=PRESENTATION_STYLE_ASSIGNMENT((#141));
#143=STYLED_ITEM('',(#142),#140);
#144=CARTESIAN_POINT('',(0.E0,0.E0,5.E1));
#145=DIRECTION('',(0.E0,0.E0,-1.E0));
#146=DIRECTION('',(-1.E0,0.E0,0.E0));
#147=AXIS2_PLACEMENT_3D('',#144,#145,#146);
#149=CURVE_STYLE('',#47,POSITIVE_LENGTH_MEASURE(2.E-2),#9);
#150=PRESENTATION_STYLE_ASSIGNMENT((#149));
#151=STYLED_ITEM('',(#150),#148);
#152=CARTESIAN_POINT('',(0.E0,0.E0,5.E1));
#153=DIRECTION('',(0.E0,0.E0,1.E0));
#154=DIRECTION('',(1.E0,0.E0,0.E0));
#155=AXIS2_PLACEMENT_3D('',#152,#153,#154);
#157=CURVE_STYLE('',#47,POSITIVE_LENGTH_MEASURE(2.E-2),#9);
#158=PRESENTATION_STYLE_ASSIGNMENT((#157));
#159=STYLED_ITEM('',(#158),#156);
#160=CARTESIAN_POINT('',(0.E0,0.E0,5.E1));
#161=DIRECTION('',(0.E0,0.E0,1.E0));
#162=DIRECTION('',(-1.E0,0.E0,0.E0));
#163=AXIS2_PLACEMENT_3D('',#160,#161,#162);
#165=CURVE_STYLE('',#47,POSITIVE_LENGTH_MEASURE(2.E-2),#9);
#166=PRESENTATION_STYLE_ASSIGNMENT((#165));
#167=STYLED_ITEM('',(#166),#164);
#168=DIRECTION('',(0.E0,0.E0,1.E0));
#169=VECTOR('',#168,1.E2);
#170=CARTESIAN_POINT('',(1.5E1,0.E0,-5.E1));
#171=LINE('',#170,#169);
#172=CURVE_STYLE('',#47,POSITIVE_LENGTH_MEASURE(2.E-2),#9);
#173=PRESENTATION_STYLE_ASSIGNMENT((#172));
#174=STYLED_ITEM('',(#173),#171);
#175=CARTESIAN_POINT('',(6.176470588116E0,1.366935298667E1,-1.552063158801E-9));
#176=CARTESIAN_POINT('',(6.176458886461E0,1.366935683406E1,-4.349025477473E-1));
#177=CARTESIAN_POINT('',(6.106706611310E0,1.370122115567E1,-1.296961195928E0));
#178=CARTESIAN_POINT('',(5.777958045583E0,1.384519147699E1,-2.596271949344E0));
#179=CARTESIAN_POINT('',(5.225861305976E0,1.406597323472E1,-3.813453736639E0));
#180=CARTESIAN_POINT('',(4.484350314016E0,1.432251987761E1,-4.87459345E0));
#181=CARTESIAN_POINT('',(3.611390073403E0,1.456901912709E1,-5.726163980994E0));
#182=CARTESIAN_POINT('',(2.660586131094E0,1.477331243247E1,-6.356622629770E0));
#183=CARTESIAN_POINT('',(1.661916734878E0,1.491928702607E1,-6.776769822571E0));
#184=CARTESIAN_POINT('',(6.363196305089E-1,1.499843813615E1,-6.995861640919E0));
#185=CARTESIAN_POINT('',(-4.091492986819E-1,1.500678497821E1,
-7.018628216444E0));
#186=CARTESIAN_POINT('',(-1.470271446662E0,1.494050660287E1,-6.836192055835E0));
#187=CARTESIAN_POINT('',(-2.527235652443E0,1.479821496371E1,-6.430452594497E0));
#188=CARTESIAN_POINT('',(-3.545672369504E0,1.458663022063E1,-5.784784030360E0));
#189=CARTESIAN_POINT('',(-4.467392436159E0,1.432823838399E1,-4.897135664916E0));
#190=CARTESIAN_POINT('',(-5.208396022898E0,1.407239942598E1,-3.842462347820E0));
#191=CARTESIAN_POINT('',(-5.770213235532E0,1.384861385934E1,-2.623421689247E0));
#192=CARTESIAN_POINT('',(-6.108956058256E0,1.370022691291E1,-1.290586500660E0));
#193=CARTESIAN_POINT('',(-6.176457607304E0,1.366935787980E1,
-4.311795473758E-1));
#194=CARTESIAN_POINT('',(-6.176470588116E0,1.366935298667E1,1.552454955379E-9));
#196=CURVE_STYLE('',#47,POSITIVE_LENGTH_MEASURE(2.E-2),#9);
#197=PRESENTATION_STYLE_ASSIGNMENT((#196));
#198=STYLED_ITEM('',(#197),#195);
#199=CARTESIAN_POINT('',(-6.176470588116E0,1.366935298667E1,1.552454955379E-9));
#200=CARTESIAN_POINT('',(-6.176458886742E0,1.366935683074E1,4.349315457713E-1));
#201=CARTESIAN_POINT('',(-6.106699492287E0,1.370122464063E1,1.296979682202E0));
#202=CARTESIAN_POINT('',(-5.777995059010E0,1.384517393202E1,2.596091005770E0));
#203=CARTESIAN_POINT('',(-5.226188260078E0,1.406584610316E1,3.812823168720E0));
#204=CARTESIAN_POINT('',(-4.484927485391E0,1.432233646670E1,4.873910654373E0));
#205=CARTESIAN_POINT('',(-3.612016905453E0,1.456886323298E1,5.725661342038E0));
#206=CARTESIAN_POINT('',(-2.661263311531E0,1.477318978409E1,6.356259608249E0));
#207=CARTESIAN_POINT('',(-1.662617055691E0,1.491920828395E1,6.776549000787E0));
#208=CARTESIAN_POINT('',(-6.370859504003E-1,1.499840373290E1,6.995767550456E0));
#209=CARTESIAN_POINT('',(4.083148066269E-1,1.500680691610E1,7.018687937454E0));
#210=CARTESIAN_POINT('',(1.469447053018E0,1.494058846545E1,6.836420098019E0));
#211=CARTESIAN_POINT('',(2.526434338521E0,1.479835110741E1,6.430849939599E0));
#212=CARTESIAN_POINT('',(3.544880382760E0,1.458682563555E1,5.785409104248E0));
#213=CARTESIAN_POINT('',(4.466902137357E0,1.432840012530E1,4.897756992528E0));
#214=CARTESIAN_POINT('',(5.208305054152E0,1.407243776537E1,3.842680662358E0));
#215=CARTESIAN_POINT('',(5.770228955968E0,1.384860718285E1,2.623388792306E0));
#216=CARTESIAN_POINT('',(6.108953866578E0,1.370022780282E1,1.290585400728E0));
#217=CARTESIAN_POINT('',(6.176457609645E0,1.366935787887E1,4.311718059117E-1));
#218=CARTESIAN_POINT('',(6.176470588116E0,1.366935298667E1,-1.552063158801E-9));
#220=CURVE_STYLE('',#47,POSITIVE_LENGTH_MEASURE(2.E-2),#9);
#221=PRESENTATION_STYLE_ASSIGNMENT((#220));
#222=STYLED_ITEM('',(#221),#219);
#223=DIRECTION('',(0.E0,0.E0,1.E0));
#224=VECTOR('',#223,1.E2);
#225=CARTESIAN_POINT('',(-1.5E1,0.E0,-5.E1));
#226=LINE('',#225,#224);
#227=CURVE_STYLE('',#47,POSITIVE_LENGTH_MEASURE(2.E-2),#9);
#228=PRESENTATION_STYLE_ASSIGNMENT((#227));
#229=STYLED_ITEM('',(#228),#226);
#230=CARTESIAN_POINT('',(7.000000000023E0,1.549193338482E1,5.476515028752E-7));
#231=DIRECTION('',(7.823335176035E-8,-3.534708054293E-8,-1.E0));
#232=DIRECTION('',(-4.117647059583E-1,-9.112901990733E-1,-2.285019104427E-12));
#233=AXIS2_PLACEMENT_3D('',#230,#231,#232);
#235=CURVE_STYLE('',#47,POSITIVE_LENGTH_MEASURE(2.E-2),#9);
#236=PRESENTATION_STYLE_ASSIGNMENT((#235));
#237=STYLED_ITEM('',(#236),#234);
#238=CARTESIAN_POINT('',(-7.000000000023E0,1.549193338482E1,
-5.478694880334E-7));
#239=DIRECTION('',(-7.826449414650E-8,-3.536115240602E-8,1.E0));
#240=DIRECTION('',(4.117647059583E-1,-9.112901990733E-1,2.284803667209E-12));
#241=AXIS2_PLACEMENT_3D('',#238,#239,#240);
#243=CURVE_STYLE('',#47,POSITIVE_LENGTH_MEASURE(2.E-2),#9);
#244=PRESENTATION_STYLE_ASSIGNMENT((#243));
#245=STYLED_ITEM('',(#244),#242);
#246=CARTESIAN_POINT('',(-5.E0,1.549193338821E1,2.047052782033E-10));
#247=CARTESIAN_POINT('',(-4.999993551948E0,1.549194158455E1,3.068245318485E-1));
#248=CARTESIAN_POINT('',(-4.943521305950E0,1.552806145691E1,9.281957694485E-1));
#249=CARTESIAN_POINT('',(-4.677428768584E0,1.569119071951E1,1.853875264891E0));
#250=CARTESIAN_POINT('',(-4.230728899498E0,1.594129810283E1,2.723573849694E0));
#251=CARTESIAN_POINT('',(-3.630654047338E0,1.623197801384E1,3.481330839370E0));
#252=CARTESIAN_POINT('',(-2.924012235520E0,1.651137631490E1,4.089766670508E0));
#253=CARTESIAN_POINT('',(-2.154354192837E0,1.674294488585E1,4.540181630675E0));
#254=CARTESIAN_POINT('',(-1.345927551491E0,1.690843428132E1,4.840391637998E0));
#255=CARTESIAN_POINT('',(-5.157363201803E-1,1.699819066588E1,4.996976598522E0));
#256=CARTESIAN_POINT('',(3.305406384862E-1,1.700771478921E1,5.013348552931E0));
#257=CARTESIAN_POINT('',(1.189552056668E0,1.693266554688E1,4.883156724346E0));
#258=CARTESIAN_POINT('',(2.045206535830E0,1.677146021014E1,4.593459690688E0));
#259=CARTESIAN_POINT('',(2.869663010546E0,1.653173300012E1,4.132443922362E0));
#260=CARTESIAN_POINT('',(3.616062751695E0,1.623884922888E1,3.498362797305E0));
#261=CARTESIAN_POINT('',(4.216251086741E0,1.594876897461E1,2.744907076822E0));
#262=CARTESIAN_POINT('',(4.671143566159E0,1.569508234370E1,1.873348249495E0));
#263=CARTESIAN_POINT('',(4.945345121832E0,1.552693124330E1,9.237243821216E-1));
#264=CARTESIAN_POINT('',(4.999992983861E0,1.549194289008E1,3.039320016729E-1));
#265=CARTESIAN_POINT('',(5.E0,1.549193338827E1,-2.046531043622E-10));
#267=CURVE_STYLE('',#47,POSITIVE_LENGTH_MEASURE(2.E-2),#9);
#268=PRESENTATION_STYLE_ASSIGNMENT((#267));
#269=STYLED_ITEM('',(#268),#266);
#270=DIRECTION('',(1.024503003208E-14,1.E0,-4.540879897189E-11));
#271=VECTOR('',#270,4.508066611790E0);
#272=CARTESIAN_POINT('',(-5.E0,1.549193338821E1,2.047052782033E-10));
#273=LINE('',#272,#271);
#274=CURVE_STYLE('',#47,POSITIVE_LENGTH_MEASURE(2.E-2),#9);
#275=PRESENTATION_STYLE_ASSIGNMENT((#274));
#276=STYLED_ITEM('',(#275),#273);
#277=CARTESIAN_POINT('',(5.E0,1.549193338827E1,-2.046531043622E-10));
#278=CARTESIAN_POINT('',(4.999993552505E0,1.549194158692E1,-3.068018800859E-1));
#279=CARTESIAN_POINT('',(4.943527063511E0,1.552805751006E1,-9.281834637575E-1));
#280=CARTESIAN_POINT('',(4.677398811675E0,1.569121059952E1,-1.854004271209E0));
#281=CARTESIAN_POINT('',(4.230464227742E0,1.594144219149E1,-2.724024321748E0));
#282=CARTESIAN_POINT('',(3.630186805575E0,1.623218587704E1,-3.481818528936E0));
#283=CARTESIAN_POINT('',(2.923504801373E0,1.651155299252E1,-4.090125704078E0));
#284=CARTESIAN_POINT('',(2.153805999540E0,1.674308388955E1,-4.540440929708E0));
#285=CARTESIAN_POINT('',(1.345360625704E0,1.690852352173E1,-4.840549368798E0));
#286=CARTESIAN_POINT('',(5.151159660990E-1,1.699822965765E1,-4.997043806590E0));
#287=CARTESIAN_POINT('',(-3.312161797440E-1,1.700768992522E1,
-5.013305894368E0));
#288=CARTESIAN_POINT('',(-1.190219422216E0,1.693257276718E1,-4.882993836501E0));
#289=CARTESIAN_POINT('',(-2.045855216816E0,1.677130591508E1,-4.593175871387E0));
#290=CARTESIAN_POINT('',(-2.870304145005E0,1.653151152709E1,-4.131997445587E0));
#291=CARTESIAN_POINT('',(-3.616459666768E0,1.623866592666E1,-3.497918995300E0));
#292=CARTESIAN_POINT('',(-4.216324718220E0,1.594872552188E1,-2.744751126961E0));
#293=CARTESIAN_POINT('',(-4.671130844121E0,1.569508991274E1,-1.873371773938E0));
#294=CARTESIAN_POINT('',(-4.945346895104E0,1.552693023288E1,
-9.237250718662E-1));
#295=CARTESIAN_POINT('',(-4.999992982558E0,1.549194289206E1,
-3.039377376815E-1));
#296=CARTESIAN_POINT('',(-5.E0,1.549193338821E1,2.047052782033E-10));
#298=CURVE_STYLE('',#47,POSITIVE_LENGTH_MEASURE(2.E-2),#9);
#299=PRESENTATION_STYLE_ASSIGNMENT((#298));
#300=STYLED_ITEM('',(#299),#297);
#301=DIRECTION('',(-1.024503003222E-14,1.E0,4.539722553196E-11));
#302=VECTOR('',#301,4.508066611726E0);
#303=CARTESIAN_POINT('',(5.E0,1.549193338827E1,-2.046531043622E-10));
#304=LINE('',#303,#302);
#305=CURVE_STYLE('',#47,POSITIVE_LENGTH_MEASURE(2.E-2),#9);
#306=PRESENTATION_STYLE_ASSIGNMENT((#305));
#307=STYLED_ITEM('',(#306),#304);
#308=CARTESIAN_POINT('',(0.E0,2.E1,0.E0));
#309=DIRECTION('',(0.E0,-1.E0,0.E0));
#310=DIRECTION('',(1.E0,0.E0,0.E0));
#311=AXIS2_PLACEMENT_3D('',#308,#309,#310);
#313=CURVE_STYLE('',#47,POSITIVE_LENGTH_MEASURE(2.E-2),#9);
#314=PRESENTATION_STYLE_ASSIGNMENT((#313));
#315=STYLED_ITEM('',(#314),#312);
#316=CARTESIAN_POINT('',(0.E0,2.E1,0.E0));
#317=DIRECTION('',(0.E0,-1.E0,0.E0));
#318=DIRECTION('',(-1.E0,0.E0,0.E0));
#319=AXIS2_PLACEMENT_3D('',#316,#317,#318);
#321=CURVE_STYLE('',#47,POSITIVE_LENGTH_MEASURE(2.E-2),#9);
#322=PRESENTATION_STYLE_ASSIGNMENT((#321));
#323=STYLED_ITEM('',(#322),#320);
#324=CARTESIAN_POINT('',(0.E0,2.E1,0.E0));
#325=DIRECTION('',(0.E0,1.E0,0.E0));
#326=DIRECTION('',(1.E0,0.E0,0.E0));
#327=AXIS2_PLACEMENT_3D('',#324,#325,#326);
#329=CURVE_STYLE('',#47,POSITIVE_LENGTH_MEASURE(2.E-2),#9);
#330=PRESENTATION_STYLE_ASSIGNMENT((#329));
#331=STYLED_ITEM('',(#330),#328);
#332=CARTESIAN_POINT('',(0.E0,2.E1,0.E0));
#333=DIRECTION('',(0.E0,1.E0,0.E0));
#334=DIRECTION('',(-1.E0,0.E0,0.E0));
#335=AXIS2_PLACEMENT_3D('',#332,#333,#334);
#337=CURVE_STYLE('',#47,POSITIVE_LENGTH_MEASURE(2.E-2),#9);
#338=PRESENTATION_STYLE_ASSIGNMENT((#337));
#339=STYLED_ITEM('',(#338),#336);
#340=DIRECTION('',(0.E0,1.E0,0.E0));
#341=VECTOR('',#340,7.630683123147E0);
#342=CARTESIAN_POINT('',(-4.E0,1.236931687685E1,0.E0));
#343=LINE('',#342,#341);
#344=CURVE_STYLE('',#47,POSITIVE_LENGTH_MEASURE(2.E-2),#9);
#345=PRESENTATION_STYLE_ASSIGNMENT((#344));
#346=STYLED_ITEM('',(#345),#343);
#347=DIRECTION('',(0.E0,-1.E0,0.E0));
#348=VECTOR('',#347,7.630683123147E0);
#349=CARTESIAN_POINT('',(4.E0,2.E1,0.E0));
#350=LINE('',#349,#348);
#351=CURVE_STYLE('',#47,POSITIVE_LENGTH_MEASURE(2.E-2),#9);
#352=PRESENTATION_STYLE_ASSIGNMENT((#351));
#353=STYLED_ITEM('',(#352),#350);
#354=CARTESIAN_POINT('',(1.3E1,0.E0,-5.E1));
#355=CARTESIAN_POINT('',(-1.3E1,0.E0,-5.E1));
#356=VERTEX_POINT('',#354);
#357=VERTEX_POINT('',#355);
#358=CARTESIAN_POINT('',(1.5E1,0.E0,-5.E1));
#359=CARTESIAN_POINT('',(-1.5E1,0.E0,-5.E1));
#360=VERTEX_POINT('',#358);
#361=VERTEX_POINT('',#359);
#362=CARTESIAN_POINT('',(1.3E1,0.E0,5.E1));
#363=CARTESIAN_POINT('',(-1.3E1,0.E0,5.E1));
#364=VERTEX_POINT('',#362);
#365=VERTEX_POINT('',#363);
#366=CARTESIAN_POINT('',(1.5E1,0.E0,5.E1));
#367=CARTESIAN_POINT('',(-1.5E1,0.E0,5.E1));
#368=VERTEX_POINT('',#366);
#369=VERTEX_POINT('',#367);
#370=VERTEX_POINT('',#90);
#371=VERTEX_POINT('',#108);
#372=CARTESIAN_POINT('',(4.E0,2.E1,0.E0));
#373=CARTESIAN_POINT('',(-4.E0,2.E1,0.E0));
#374=VERTEX_POINT('',#372);
#375=VERTEX_POINT('',#373);
#376=CARTESIAN_POINT('',(5.E0,2.E1,0.E0));
#377=CARTESIAN_POINT('',(-5.E0,2.E1,0.E0));
#378=VERTEX_POINT('',#376);
#379=VERTEX_POINT('',#377);
#380=VERTEX_POINT('',#175);
#381=VERTEX_POINT('',#194);
#382=VERTEX_POINT('',#277);
#383=VERTEX_POINT('',#296);
#384=CARTESIAN_POINT('',(0.E0,0.E0,-5.E1));
#385=DIRECTION('',(0.E0,0.E0,1.E0));
#386=DIRECTION('',(1.E0,0.E0,0.E0));
#387=AXIS2_PLACEMENT_3D('',#384,#385,#386);
#388=CYLINDRICAL_SURFACE('',#387,1.3E1);
#390=ORIENTED_EDGE('',*,*,#389,.F.);
#392=ORIENTED_EDGE('',*,*,#391,.T.);
#394=ORIENTED_EDGE('',*,*,#393,.T.);
#396=ORIENTED_EDGE('',*,*,#395,.F.);
#397=EDGE_LOOP('',(#390,#392,#394,#396));
#398=FACE_OUTER_BOUND('',#397,.F.);
#400=FILL_AREA_STYLE_COLOUR('',#9);
#401=FILL_AREA_STYLE('',(#400));
#402=SURFACE_STYLE_FILL_AREA(#401);
#403=SURFACE_SIDE_STYLE('',(#402));
#404=SURFACE_STYLE_USAGE(.BOTH.,#403);
#405=PRESENTATION_STYLE_ASSIGNMENT((#404));
#406=STYLED_ITEM('',(#405),#399);
#407=CARTESIAN_POINT('',(0.E0,0.E0,-5.E1));
#408=DIRECTION('',(0.E0,0.E0,1.E0));
#409=DIRECTION('',(1.E0,0.E0,0.E0));
#410=AXIS2_PLACEMENT_3D('',#407,#408,#409);
#411=PLANE('',#410);
#413=ORIENTED_EDGE('',*,*,#412,.T.);
#415=ORIENTED_EDGE('',*,*,#414,.T.);
#416=EDGE_LOOP('',(#413,#415));
#417=FACE_OUTER_BOUND('',#416,.F.);
#418=ORIENTED_EDGE('',*,*,#389,.T.);
#420=ORIENTED_EDGE('',*,*,#419,.T.);
#421=EDGE_LOOP('',(#418,#420));
#422=FACE_BOUND('',#421,.F.);
#424=FILL_AREA_STYLE_COLOUR('',#9);
#425=FILL_AREA_STYLE('',(#424));
#426=SURFACE_STYLE_FILL_AREA(#425);
#427=SURFACE_SIDE_STYLE('',(#426));
#428=SURFACE_STYLE_USAGE(.BOTH.,#427);
#429=PRESENTATION_STYLE_ASSIGNMENT((#428));
#430=STYLED_ITEM('',(#429),#423);
#431=CARTESIAN_POINT('',(0.E0,0.E0,-5.E1));
#432=DIRECTION('',(0.E0,0.E0,1.E0));
#433=DIRECTION('',(1.E0,0.E0,0.E0));
#434=AXIS2_PLACEMENT_3D('',#431,#432,#433);
#435=CYLINDRICAL_SURFACE('',#434,1.3E1);
#436=ORIENTED_EDGE('',*,*,#419,.F.);
#437=ORIENTED_EDGE('',*,*,#395,.T.);
#439=ORIENTED_EDGE('',*,*,#438,.T.);
#440=ORIENTED_EDGE('',*,*,#391,.F.);
#441=EDGE_LOOP('',(#436,#437,#439,#440));
#442=FACE_OUTER_BOUND('',#441,.F.);
#444=ORIENTED_EDGE('',*,*,#443,.F.);
#446=ORIENTED_EDGE('',*,*,#445,.F.);
#447=EDGE_LOOP('',(#444,#446));
#448=FACE_BOUND('',#447,.F.);
#450=FILL_AREA_STYLE_COLOUR('',#9);
#451=FILL_AREA_STYLE('',(#450));
#452=SURFACE_STYLE_FILL_AREA(#451);
#453=SURFACE_SIDE_STYLE('',(#452));
#454=SURFACE_STYLE_USAGE(.BOTH.,#453);
#455=PRESENTATION_STYLE_ASSIGNMENT((#454));
#456=STYLED_ITEM('',(#455),#449);
#457=CARTESIAN_POINT('',(0.E0,0.E0,5.E1));
#458=DIRECTION('',(0.E0,0.E0,1.E0));
#459=DIRECTION('',(1.E0,0.E0,0.E0));
#460=AXIS2_PLACEMENT_3D('',#457,#458,#459);
#461=PLANE('',#460);
#463=ORIENTED_EDGE('',*,*,#462,.F.);
#465=ORIENTED_EDGE('',*,*,#464,.F.);
#466=EDGE_LOOP('',(#463,#465));
#467=FACE_OUTER_BOUND('',#466,.F.);
#468=ORIENTED_EDGE('',*,*,#393,.F.);
#469=ORIENTED_EDGE('',*,*,#438,.F.);
#470=EDGE_LOOP('',(#468,#469));
#471=FACE_BOUND('',#470,.F.);
#473=FILL_AREA_STYLE_COLOUR('',#9);
#474=FILL_AREA_STYLE('',(#473));
#475=SURFACE_STYLE_FILL_AREA(#474);
#476=SURFACE_SIDE_STYLE('',(#475));
#477=SURFACE_STYLE_USAGE(.BOTH.,#476);
#478=PRESENTATION_STYLE_ASSIGNMENT((#477));
#479=STYLED_ITEM('',(#478),#472);
#480=CARTESIAN_POINT('',(0.E0,0.E0,-5.E1));
#481=DIRECTION('',(0.E0,0.E0,1.E0));
#482=DIRECTION('',(1.E0,0.E0,0.E0));
#483=AXIS2_PLACEMENT_3D('',#480,#481,#482);
#484=CYLINDRICAL_SURFACE('',#483,1.5E1);
#485=ORIENTED_EDGE('',*,*,#412,.F.);
#487=ORIENTED_EDGE('',*,*,#486,.T.);
#488=ORIENTED_EDGE('',*,*,#462,.T.);
#490=ORIENTED_EDGE('',*,*,#489,.F.);
#491=EDGE_LOOP('',(#485,#487,#488,#490));
#492=FACE_OUTER_BOUND('',#491,.F.);
#494=ORIENTED_EDGE('',*,*,#493,.T.);
#496=ORIENTED_EDGE('',*,*,#495,.T.);
#497=EDGE_LOOP('',(#494,#496));
#498=FACE_BOUND('',#497,.F.);
#500=FILL_AREA_STYLE_COLOUR('',#9);
#501=FILL_AREA_STYLE('',(#500));
#502=SURFACE_STYLE_FILL_AREA(#501);
#503=SURFACE_SIDE_STYLE('',(#502));
#504=SURFACE_STYLE_USAGE(.BOTH.,#503);
#505=PRESENTATION_STYLE_ASSIGNMENT((#504));
#506=STYLED_ITEM('',(#505),#499);
#507=CARTESIAN_POINT('',(0.E0,0.E0,-5.E1));
#508=DIRECTION('',(0.E0,0.E0,1.E0));
#509=DIRECTION('',(1.E0,0.E0,0.E0));
#510=AXIS2_PLACEMENT_3D('',#507,#508,#509);
#511=CYLINDRICAL_SURFACE('',#510,1.5E1);
#512=ORIENTED_EDGE('',*,*,#414,.F.);
#513=ORIENTED_EDGE('',*,*,#489,.T.);
#514=ORIENTED_EDGE('',*,*,#464,.T.);
#515=ORIENTED_EDGE('',*,*,#486,.F.);
#516=EDGE_LOOP('',(#512,#513,#514,#515));
#517=FACE_OUTER_BOUND('',#516,.F.);
#519=FILL_AREA_STYLE_COLOUR('',#9);
#520=FILL_AREA_STYLE('',(#519));
#521=SURFACE_STYLE_FILL_AREA(#520);
#522=SURFACE_SIDE_STYLE('',(#521));
#523=SURFACE_STYLE_USAGE(.BOTH.,#522);
#524=PRESENTATION_STYLE_ASSIGNMENT((#523));
#525=STYLED_ITEM('',(#524),#518);
#526=CARTESIAN_POINT('',(7.116492912597E0,1.349747669330E1,2.548679038894E-1));
#527=CARTESIAN_POINT('',(7.119514247808E0,1.349621737569E1,1.699987099020E-1));
#528=CARTESIAN_POINT('',(7.129899898172E0,1.349197907792E1,-4.133877760882E-1));
#529=CARTESIAN_POINT('',(7.014656689007E0,1.353854262554E1,-1.512453628925E0));
#530=CARTESIAN_POINT('',(6.547608614102E0,1.372019271771E1,-2.945374715933E0));
#531=CARTESIAN_POINT('',(5.813900317251E0,1.398399687724E1,-4.213649839794E0));
#532=CARTESIAN_POINT('',(4.891006638286E0,1.427662888807E1,-5.251205737319E0));
#533=CARTESIAN_POINT('',(3.863381557193E0,1.454865526004E1,-6.038264036327E0));
#534=CARTESIAN_POINT('',(2.795530936879E0,1.476827638598E1,-6.591287742371E0));
#535=CARTESIAN_POINT('',(1.721657856827E0,1.492102260633E1,-6.941811182397E0));
#536=CARTESIAN_POINT('',(6.490746375750E-1,1.500233541422E1,-7.118343490286E0));
#537=CARTESIAN_POINT('',(-4.311316469158E-1,1.501026315700E1,
-7.135188706623E0));
#538=CARTESIAN_POINT('',(-1.532082204335E0,1.494163019992E1,-6.987307185542E0));
#539=CARTESIAN_POINT('',(-2.656784263465E0,1.479323813080E1,-6.651007076996E0));
#540=CARTESIAN_POINT('',(-3.781926309944E0,1.456881453516E1,-6.093312907733E0));
#541=CARTESIAN_POINT('',(-4.849917931976E0,1.428900353097E1,-5.291792138533E0));
#542=CARTESIAN_POINT('',(-5.793888257549E0,1.399089472786E1,-4.242154251502E0));
#543=CARTESIAN_POINT('',(-6.540039089472E0,1.372313827887E1,-2.965291032793E0));
#544=CARTESIAN_POINT('',(-7.013735151602E0,1.353891223842E1,-1.521417798083E0));
#545=CARTESIAN_POINT('',(-7.129889736866E0,1.349198479635E1,
-4.134146887086E-1));
#546=CARTESIAN_POINT('',(-7.119517209593E0,1.349621564162E1,1.698848165877E-1));
#547=CARTESIAN_POINT('',(-7.116500950992E0,1.349747214369E1,2.546990006715E-1));
#548=CARTESIAN_POINT('',(5.832670114990E0,1.341962309222E1,2.151763152121E-1));
#549=CARTESIAN_POINT('',(5.835279374774E0,1.341835717564E1,1.435283221227E-1));
#550=CARTESIAN_POINT('',(5.844257662824E0,1.341409826302E1,-3.490208993225E-1));
#551=CARTESIAN_POINT('',(5.744562478594E0,1.346087856514E1,-1.276916917547E0));
#552=CARTESIAN_POINT('',(5.342736949441E0,1.364323426799E1,-2.478549330212E0));
#553=CARTESIAN_POINT('',(4.718115488422E0,1.390770873931E1,-3.528545341800E0));
#554=CARTESIAN_POINT('',(3.943365502367E0,1.420059502356E1,-4.372778150411E0));
#555=CARTESIAN_POINT('',(3.094174125027E0,1.447238047999E1,-5.000520300159E0));
#556=CARTESIAN_POINT('',(2.225603743872E0,1.469144001051E1,-5.432555260026E0));
#557=CARTESIAN_POINT('',(1.364392921086E0,1.484357605749E1,-5.701216862508E0));
#558=CARTESIAN_POINT('',(5.130291583227E-1,1.492448080266E1,-5.834604144141E0));
#559=CARTESIAN_POINT('',(-3.406775835708E-1,1.493236530649E1,
-5.847253008681E0));
#560=CARTESIAN_POINT('',(-1.213297760620E0,1.486408712486E1,-5.735754171414E0));
#561=CARTESIAN_POINT('',(-2.113469050217E0,1.471631980863E1,-5.478760512019E0));
#562=CARTESIAN_POINT('',(-3.027196713468E0,1.449251003232E1,-5.044101245756E0));
#563=CARTESIAN_POINT('',(-3.909043274675E0,1.421297331196E1,-4.405589219438E0));
#564=CARTESIAN_POINT('',(-4.701165868468E0,1.391461961504E1,-3.551979253296E0));
#565=CARTESIAN_POINT('',(-5.336225250878E0,1.364619109311E1,-2.495217288428E0));
#566=CARTESIAN_POINT('',(-5.743765559376E0,1.346124990534E1,-1.284487108749E0));
#567=CARTESIAN_POINT('',(-5.844248979132E0,1.341410402459E1,
-3.490432550197E-1));
#568=CARTESIAN_POINT('',(-5.835281893623E0,1.341835542738E1,1.434320659342E-1));
#569=CARTESIAN_POINT('',(-5.832676973210E0,1.341961850301E1,2.150335336087E-1));
#570=CARTESIAN_POINT('',(4.923397942851E0,1.432916687180E1,1.732163849105E-1));
#571=CARTESIAN_POINT('',(4.925422437392E0,1.432797804939E1,1.155344949394E-1));
#572=CARTESIAN_POINT('',(4.932377000290E0,1.432395997486E1,-2.809458081390E-1));
#573=CARTESIAN_POINT('',(4.855240397693E0,1.436820798936E1,-1.027910071973E0));
#574=CARTESIAN_POINT('',(4.541534415677E0,1.454232022245E1,-2.005791256181E0));
#575=CARTESIAN_POINT('',(4.045442402731E0,1.479896361201E1,-2.878019680355E0));
#576=CARTESIAN_POINT('',(3.416029829702E0,1.508887928463E1,-3.598870688833E0));
#577=CARTESIAN_POINT('',(2.708525803912E0,1.536347929595E1,-4.151949883186E0));
#578=CARTESIAN_POINT('',(1.966472763274E0,1.558909980259E1,-4.545041933022E0));
#579=CARTESIAN_POINT('',(1.214173369910E0,1.574836434961E1,-4.796754894736E0));
#580=CARTESIAN_POINT('',(4.584199641955E-1,1.583403638758E1,-4.924471883656E0));
#581=CARTESIAN_POINT('',(-3.045381625536E-1,1.584242604107E1,
-4.936698229836E0));
#582=CARTESIAN_POINT('',(-1.080902620652E0,1.577000310826E1,-4.829590742117E0));
#583=CARTESIAN_POINT('',(-1.869701530663E0,1.561493696309E1,-4.587712697461E0));
#584=CARTESIAN_POINT('',(-2.652279871841E0,1.538395609205E1,-4.190794335078E0));
#585=CARTESIAN_POINT('',(-3.387922875086E0,1.510121498352E1,-3.627173793762E0));
#586=CARTESIAN_POINT('',(-4.031868326213E0,1.480572231860E1,-2.897704399610E0));
#587=CARTESIAN_POINT('',(-4.536449758827E0,1.454514545366E1,-2.019399567739E0));
#588=CARTESIAN_POINT('',(-4.854623435205E0,1.436855914972E1,-1.034001395744E0));
#589=CARTESIAN_POINT('',(-4.932370146185E0,1.432396523242E1,
-2.809642796535E-1));
#590=CARTESIAN_POINT('',(-4.925424441261E0,1.432797646690E1,1.154571388112E-1));
#591=CARTESIAN_POINT('',(-4.923403370559E0,1.432916274528E1,1.731016830465E-1));
#592=CARTESIAN_POINT('',(5.001113569479E0,1.561348791845E1,1.572500810654E-1));
#593=CARTESIAN_POINT('',(5.002774475597E0,1.561240795687E1,1.048723752654E-1));
#594=CARTESIAN_POINT('',(5.008452023687E0,1.560872995770E1,-2.550142482458E-1));
#595=CARTESIAN_POINT('',(4.945690303627E0,1.564940225614E1,-9.331508045771E-1));
#596=CARTESIAN_POINT('',(4.683648249417E0,1.58118743E1,-1.845525083731E0));
#597=CARTESIAN_POINT('',(4.248957724986E0,1.605745981268E1,-2.700232198131E0));
#598=CARTESIAN_POINT('',(3.664184765776E0,1.634318083397E1,-3.450746086325E0));
#599=CARTESIAN_POINT('',(2.966188706479E0,1.662175513674E1,-4.064104498349E0));
#600=CARTESIAN_POINT('',(2.192674784104E0,1.685664006794E1,-4.526529338657E0));
#601=CARTESIAN_POINT('',(1.372179070138E0,1.702597041150E1,-4.837622555620E0));
#602=CARTESIAN_POINT('',(5.220288918228E-1,1.711837410398E1,-5.000963191703E0));
#603=CARTESIAN_POINT('',(-3.470549677492E-1,1.712747705390E1,
-5.016825438764E0));
#604=CARTESIAN_POINT('',(-1.224071079834E0,1.704920152632E1,-4.879160187801E0));
#605=CARTESIAN_POINT('',(-2.089670486988E0,1.688382907171E1,-4.578025852670E0));
#606=CARTESIAN_POINT('',(-2.909699746253E0,1.664272225833E1,-4.108134137838E0));
#607=CARTESIAN_POINT('',(-3.637555602692E0,1.635545639434E1,-3.480844919104E0));
#608=CARTESIAN_POINT('',(-4.236798709811E0,1.606400364889E1,-2.720014288773E0));
#609=CARTESIAN_POINT('',(-4.679398670842E0,1.581451371407E1,-1.858323275199E0));
#610=CARTESIAN_POINT('',(-4.945187427170E0,1.564972492157E1,
-9.386744575606E-1));
#611=CARTESIAN_POINT('',(-5.008446118828E0,1.560873450357E1,
-2.550321244963E-1));
#612=CARTESIAN_POINT('',(-5.002776239304E0,1.561240660846E1,1.048024520609E-1));
#613=CARTESIAN_POINT('',(-5.001118279853E0,1.561348444529E1,1.571465040529E-1));
#614=(BOUNDED_SURFACE()B_SPLINE_SURFACE(3,3,((#526,#527,#528,#529,#530,#531,
#532,#533,#534,#535,#536,#537,#538,#539,#540,#541,#542,#543,#544,#545,#546,
#547),(#548,#549,#550,#551,#552,#553,#554,#555,#556,#557,#558,#559,#560,#561,
#562,#563,#564,#565,#566,#567,#568,#569),(#570,#571,#572,#573,#574,#575,#576,
#577,#578,#579,#580,#581,#582,#583,#584,#585,#586,#587,#588,#589,#590,#591),(
#592,#593,#594,#595,#596,#597,#598,#599,#600,#601,#602,#603,#604,#605,#606,#607,
#608,#609,#610,#611,#612,#613)),.UNSPECIFIED.,.F.,.F.,.F.)B_SPLINE_SURFACE_WITH_KNOTS((4,4),(4,1,1,1,1,1,1,1,1,1,1,1,1,1,1,1,1,1,1,4),(0.E0,1.E0),(
-1.022629976417E-2,0.E0,5.997217816665E-2,1.217379663134E-1,1.845501998843E-1,
2.466184532576E-1,3.061904445741E-1,3.625966993109E-1,4.163594236904E-1,
4.685001268477E-1,5.204933242751E-1,5.739358058663E-1,6.300461921059E-1,
6.894682768739E-1,7.514908402836E-1,8.139308670722E-1,8.771771533830E-1,
9.400336281833E-1,1.E0,1.010219137483E0),.UNSPECIFIED.)GEOMETRIC_REPRESENTATION_ITEM()RATIONAL_B_SPLINE_SURFACE(((1.202481895917E0,1.202481895917E0,
1.202481895917E0,1.202481895917E0,1.202481895917E0,1.202481895917E0,
1.202481895917E0,1.202481895917E0,1.202481895917E0,1.202481895917E0,
1.202481895917E0,1.202481895917E0,1.202481895917E0,1.202481895917E0,
1.202481895917E0,1.202481895917E0,1.202481895917E0,1.202481895917E0,
1.202481895917E0,1.202481895917E0,1.202481895917E0,1.202481895917E0),(
9.325060346942E-1,9.325060346942E-1,9.325060346942E-1,9.325060346942E-1,
9.325060346942E-1,9.325060346942E-1,9.325060346942E-1,9.325060346942E-1,
9.325060346942E-1,9.325060346942E-1,9.325060346942E-1,9.325060346942E-1,
9.325060346942E-1,9.325060346942E-1,9.325060346942E-1,9.325060346942E-1,
9.325060346942E-1,9.325060346942E-1,9.325060346942E-1,9.325060346942E-1,
9.325060346942E-1,9.325060346942E-1),(9.325060346942E-1,9.325060346942E-1,
9.325060346942E-1,9.325060346942E-1,9.325060346942E-1,9.325060346942E-1,
9.325060346942E-1,9.325060346942E-1,9.325060346942E-1,9.325060346942E-1,
9.325060346942E-1,9.325060346942E-1,9.325060346942E-1,9.325060346942E-1,
9.325060346942E-1,9.325060346942E-1,9.325060346942E-1,9.325060346942E-1,
9.325060346942E-1,9.325060346942E-1,9.325060346942E-1,9.325060346942E-1),(
1.202481895917E0,1.202481895917E0,1.202481895917E0,1.202481895917E0,
1.202481895917E0,1.202481895917E0,1.202481895917E0,1.202481895917E0,
1.202481895917E0,1.202481895917E0,1.202481895917E0,1.202481895917E0,
1.202481895917E0,1.202481895917E0,1.202481895917E0,1.202481895917E0,
1.202481895917E0,1.202481895917E0,1.202481895917E0,1.202481895917E0,
1.202481895917E0,1.202481895917E0)))REPRESENTATION_ITEM('')SURFACE());
#615=ORIENTED_EDGE('',*,*,#493,.F.);
#617=ORIENTED_EDGE('',*,*,#616,.T.);
#619=ORIENTED_EDGE('',*,*,#618,.T.);
#621=ORIENTED_EDGE('',*,*,#620,.F.);
#622=EDGE_LOOP('',(#615,#617,#619,#621));
#623=FACE_OUTER_BOUND('',#622,.F.);
#625=FILL_AREA_STYLE_COLOUR('',#9);
#626=FILL_AREA_STYLE('',(#625));
#627=SURFACE_STYLE_FILL_AREA(#626);
#628=SURFACE_SIDE_STYLE('',(#627));
#629=SURFACE_STYLE_USAGE(.BOTH.,#628);
#630=PRESENTATION_STYLE_ASSIGNMENT((#629));
#631=STYLED_ITEM('',(#630),#624);
#632=CARTESIAN_POINT('',(-7.116489039949E0,1.349747646570E1,
-2.548677712487E-1));
#633=CARTESIAN_POINT('',(-7.119510375205E0,1.349621714420E1,
-1.699986241586E-1));
#634=CARTESIAN_POINT('',(-7.129895941741E0,1.349197886632E1,4.133828629558E-1));
#635=CARTESIAN_POINT('',(-7.014663442945E0,1.353853813117E1,1.512356367405E0));
#636=CARTESIAN_POINT('',(-6.547723371943E0,1.372014649550E1,2.945045945936E0));
#637=CARTESIAN_POINT('',(-5.814257908588E0,1.398387037161E1,4.213110699721E0));
#638=CARTESIAN_POINT('',(-4.891609144276E0,1.427644953223E1,5.250633524998E0));
#639=CARTESIAN_POINT('',(-3.864100709064E0,1.454848438381E1,6.037805590071E0));
#640=CARTESIAN_POINT('',(-2.796272389967E0,1.476814628429E1,6.590975011020E0));
#641=CARTESIAN_POINT('',(-1.722417432172E0,1.492093854326E1,6.941621791301E0));
#642=CARTESIAN_POINT('',(-6.498686382518E-1,1.500230087667E1,7.118266533871E0));
#643=CARTESIAN_POINT('',(4.302974289650E-1,1.501028519364E1,7.135232058404E0));
#644=CARTESIAN_POINT('',(1.531215918327E0,1.494171408901E1,6.987487523685E0));
#645=CARTESIAN_POINT('',(2.655908815229E0,1.479338325935E1,6.651344788303E0));
#646=CARTESIAN_POINT('',(3.781149836875E0,1.456899665348E1,6.093792521867E0));
#647=CARTESIAN_POINT('',(4.849404043757E0,1.428915737679E1,5.292287642055E0));
#648=CARTESIAN_POINT('',(5.793678067836E0,1.399096809670E1,4.242481213897E0));
#649=CARTESIAN_POINT('',(6.540000423109E0,1.372315171509E1,2.965396452211E0));
#650=CARTESIAN_POINT('',(7.013731392270E0,1.353891196887E1,1.521419831919E0));
#651=CARTESIAN_POINT('',(7.129885807428E0,1.349198458450E1,4.134113679531E-1));
#652=CARTESIAN_POINT('',(7.119513336261E0,1.349621540696E1,-1.698847260639E-1));
#653=CARTESIAN_POINT('',(7.116497078275E0,1.349747190864E1,-2.546988646853E-1));
#654=CARTESIAN_POINT('',(-5.832667996992E0,1.341962547167E1,
-2.151762037441E-1));
#655=CARTESIAN_POINT('',(-5.835277256395E0,1.341835955134E1,
-1.435282498969E-1));
#656=CARTESIAN_POINT('',(-5.844255470670E0,1.341410065921E1,3.490167522265E-1));
#657=CARTESIAN_POINT('',(-5.744569564943E0,1.346087665156E1,1.276834790983E0));
#658=CARTESIAN_POINT('',(-5.342836931423E0,1.364319044604E1,2.478274028848E0));
#659=CARTESIAN_POINT('',(-4.718420142294E0,1.390758452518E1,3.528101483891E0));
#660=CARTESIAN_POINT('',(-3.943869127146E0,1.420041820102E1,4.372317133296E0));
#661=CARTESIAN_POINT('',(-3.094764755341E0,1.447221246009E1,5.000159103662E0));
#662=CARTESIAN_POINT('',(-2.226203157957E0,1.469131291898E1,5.432314170891E0));
#663=CARTESIAN_POINT('',(-1.364999060245E0,1.484349497566E1,5.701073704658E0));
#664=CARTESIAN_POINT('',(-5.136575764553E-1,1.492444905719E1,5.834547101321E0));
#665=CARTESIAN_POINT('',(3.400183195882E-1,1.493238982913E1,5.847286337208E0));
#666=CARTESIAN_POINT('',(1.212608976666E0,1.486417320221E1,5.735891491062E0));
#667=CARTESIAN_POINT('',(2.112764445987E0,1.471646699094E1,5.479021373270E0));
#668=CARTESIAN_POINT('',(3.026561397618E0,1.449269436987E1,5.044479689281E0));
#669=CARTESIAN_POINT('',(3.908615220768E0,1.421312974100E1,4.405989696495E0));
#670=CARTESIAN_POINT('',(4.700988453012E0,1.391469570951E1,3.552249339257E0));
#671=CARTESIAN_POINT('',(5.336193244590E0,1.364620716009E1,2.495305748293E0));
#672=CARTESIAN_POINT('',(5.743763555608E0,1.346125223588E1,1.284488823914E0));
#673=CARTESIAN_POINT('',(5.844246809996E0,1.341410642072E1,3.490404509805E-1));
#674=CARTESIAN_POINT('',(5.835279774654E0,1.341835779984E1,-1.434319893509E-1));
#675=CARTESIAN_POINT('',(5.832674855181E0,1.341962087483E1,-2.150334186178E-1));
#676=CARTESIAN_POINT('',(-4.923398056273E0,1.432916878354E1,
-1.732163519795E-1));
#677=CARTESIAN_POINT('',(-4.925422551166E0,1.432797995822E1,
-1.155344748770E-1));
#678=CARTESIAN_POINT('',(-4.932377058871E0,1.432396190515E1,2.809425616764E-1));
#679=CARTESIAN_POINT('',(-4.855247616023E0,1.436820584172E1,1.027844316840E0));
#680=CARTESIAN_POINT('',(-4.541614158449E0,1.454227800393E1,2.005567435385E0));
#681=CARTESIAN_POINT('',(-4.045687238149E0,1.479884201357E1,2.877648897601E0));
#682=CARTESIAN_POINT('',(-3.416444723940E0,1.508870215508E1,3.598472650362E0));
#683=CARTESIAN_POINT('',(-2.709025237520E0,1.536330728769E1,4.151627834140E0));
#684=CARTESIAN_POINT('',(-1.966991758225E0,1.558896714181E1,4.544820822178E0));
#685=CARTESIAN_POINT('',(-1.214708236841E0,1.574827827145E1,4.796621020786E0));
#686=CARTESIAN_POINT('',(-4.589808131612E-1,1.583400201297E1,4.924418972516E0));
#687=CARTESIAN_POINT('',(3.039492549399E-1,1.584245152717E1,4.936732641750E0));
#688=CARTESIAN_POINT('',(1.080293930380E0,1.577009349095E1,4.829723857536E0));
#689=CARTESIAN_POINT('',(1.869091345935E0,1.561508978161E1,4.587957040727E0));
#690=CARTESIAN_POINT('',(2.651744617874E0,1.538414389604E1,4.191135740315E0));
#691=CARTESIAN_POINT('',(3.387573651350E0,1.510137052095E1,3.627521183425E0));
#692=CARTESIAN_POINT('',(4.031728615924E0,1.480579595196E1,2.897930803804E0));
#693=CARTESIAN_POINT('',(4.536426444195E0,1.454516042657E1,2.019472231558E0));
#694=CARTESIAN_POINT('',(4.854623614232E0,1.436856102009E1,1.034003121975E0));
#695=CARTESIAN_POINT('',(4.932370222997E0,1.432396716035E1,2.809621160903E-1));
#696=CARTESIAN_POINT('',(4.925424554525E0,1.432797837343E1,-1.154571156342E-1));
#697=CARTESIAN_POINT('',(4.923403483923E0,1.432916465147E1,-1.731016481509E-1));
#698=CARTESIAN_POINT('',(-5.001113568348E0,1.561348792294E1,
-1.572500702339E-1));
#699=CARTESIAN_POINT('',(-5.002774475366E0,1.561240795950E1,
-1.048723702456E-1));
#700=CARTESIAN_POINT('',(-5.008451979921E0,1.560872998283E1,2.550113315874E-1));
#701=CARTESIAN_POINT('',(-4.945696073788E0,1.564939853418E1,9.330912690243E-1));
#702=CARTESIAN_POINT('',(-4.683714758728E0,1.581183311310E1,1.845315394757E0));
#703=CARTESIAN_POINT('',(-4.249175175025E0,1.605734068596E1,2.699862119889E0));
#704=CARTESIAN_POINT('',(-3.664580078756E0,1.634300205320E1,3.450319267673E0));
#705=CARTESIAN_POINT('',(-2.966695133576E0,1.662157627519E1,4.063735895196E0));
#706=CARTESIAN_POINT('',(-2.193228769590E0,1.685649831256E1,4.526261797700E0));
#707=CARTESIAN_POINT('',(-1.372772615823E0,1.702587603798E1,4.837453450297E0));
#708=CARTESIAN_POINT('',(-5.226656166193E-1,1.711833477004E1,5.000894526427E0));
#709=CARTESIAN_POINT('',(3.463843782593E-1,1.712750265292E1,5.016869989352E0));
#710=CARTESIAN_POINT('',(1.223390935995E0,1.704929674648E1,4.879329429725E0));
#711=CARTESIAN_POINT('',(2.089014347641E0,1.688398861700E1,4.578323842301E0));
#712=CARTESIAN_POINT('',(2.909155518459E0,1.664291373506E1,4.108526345515E0));
#713=CARTESIAN_POINT('',(3.637224352917E0,1.635560945515E1,3.481215787352E0));
#714=CARTESIAN_POINT('',(4.236675268001E0,1.606407258549E1,2.720238677848E0));
#715=CARTESIAN_POINT('',(4.679379064373E0,1.581452590977E1,1.858391255194E0));
#716=CARTESIAN_POINT('',(4.945187455449E0,1.564972489836E1,9.386761535701E-1));
#717=CARTESIAN_POINT('',(5.008446090924E0,1.560873452309E1,2.550301949647E-1));
#718=CARTESIAN_POINT('',(5.002776238533E0,1.561240661013E1,-1.048024451796E-1));
#719=CARTESIAN_POINT('',(5.001118278590E0,1.561348444713E1,-1.571464935421E-1));
#720=(BOUNDED_SURFACE()B_SPLINE_SURFACE(3,3,((#632,#633,#634,#635,#636,#637,
#638,#639,#640,#641,#642,#643,#644,#645,#646,#647,#648,#649,#650,#651,#652,
#653),(#654,#655,#656,#657,#658,#659,#660,#661,#662,#663,#664,#665,#666,#667,
#668,#669,#670,#671,#672,#673,#674,#675),(#676,#677,#678,#679,#680,#681,#682,
#683,#684,#685,#686,#687,#688,#689,#690,#691,#692,#693,#694,#695,#696,#697),(
#698,#699,#700,#701,#702,#703,#704,#705,#706,#707,#708,#709,#710,#711,#712,#713,
#714,#715,#716,#717,#718,#719)),.UNSPECIFIED.,.F.,.F.,.F.)B_SPLINE_SURFACE_WITH_KNOTS((4,4),(4,1,1,1,1,1,1,1,1,1,1,1,1,1,1,1,1,1,1,4),(0.E0,1.E0),(
-1.022629971961E-2,0.E0,5.997161248361E-2,1.217269300962E-1,1.845192099788E-1,
2.465774683166E-1,3.061507093526E-1,3.625589119323E-1,4.163226900750E-1,
4.684619157260E-1,5.204525452881E-1,5.738935526627E-1,6.300016267023E-1,
6.894216737142E-1,7.514553396869E-1,8.139174482796E-1,8.771764451037E-1,
9.400340042374E-1,1.E0,1.010219136967E0),.UNSPECIFIED.)GEOMETRIC_REPRESENTATION_ITEM()RATIONAL_B_SPLINE_SURFACE(((1.202481371225E0,1.202481371225E0,
1.202481371225E0,1.202481371225E0,1.202481371225E0,1.202481371225E0,
1.202481371225E0,1.202481371225E0,1.202481371225E0,1.202481371225E0,
1.202481371225E0,1.202481371225E0,1.202481371225E0,1.202481371225E0,
1.202481371225E0,1.202481371225E0,1.202481371225E0,1.202481371225E0,
1.202481371225E0,1.202481371225E0,1.202481371225E0,1.202481371225E0),(
9.325062095917E-1,9.325062095917E-1,9.325062095917E-1,9.325062095917E-1,
9.325062095917E-1,9.325062095917E-1,9.325062095917E-1,9.325062095917E-1,
9.325062095917E-1,9.325062095917E-1,9.325062095917E-1,9.325062095917E-1,
9.325062095917E-1,9.325062095917E-1,9.325062095917E-1,9.325062095917E-1,
9.325062095917E-1,9.325062095917E-1,9.325062095917E-1,9.325062095917E-1,
9.325062095917E-1,9.325062095917E-1),(9.325062095917E-1,9.325062095917E-1,
9.325062095917E-1,9.325062095917E-1,9.325062095917E-1,9.325062095917E-1,
9.325062095917E-1,9.325062095917E-1,9.325062095917E-1,9.325062095917E-1,
9.325062095917E-1,9.325062095917E-1,9.325062095917E-1,9.325062095917E-1,
9.325062095917E-1,9.325062095917E-1,9.325062095917E-1,9.325062095917E-1,
9.325062095917E-1,9.325062095917E-1,9.325062095917E-1,9.325062095917E-1),(
1.202481371225E0,1.202481371225E0,1.202481371225E0,1.202481371225E0,
1.202481371225E0,1.202481371225E0,1.202481371225E0,1.202481371225E0,
1.202481371225E0,1.202481371225E0,1.202481371225E0,1.202481371225E0,
1.202481371225E0,1.202481371225E0,1.202481371225E0,1.202481371225E0,
1.202481371225E0,1.202481371225E0,1.202481371225E0,1.202481371225E0,
1.202481371225E0,1.202481371225E0)))REPRESENTATION_ITEM('')SURFACE());
#721=ORIENTED_EDGE('',*,*,#495,.F.);
#722=ORIENTED_EDGE('',*,*,#620,.T.);
#724=ORIENTED_EDGE('',*,*,#723,.T.);
#725=ORIENTED_EDGE('',*,*,#616,.F.);
#726=EDGE_LOOP('',(#721,#722,#724,#725));
#727=FACE_OUTER_BOUND('',#726,.F.);
#729=FILL_AREA_STYLE_COLOUR('',#9);
#730=FILL_AREA_STYLE('',(#729));
#731=SURFACE_STYLE_FILL_AREA(#730);
#732=SURFACE_SIDE_STYLE('',(#731));
#733=SURFACE_STYLE_USAGE(.BOTH.,#732);
#734=PRESENTATION_STYLE_ASSIGNMENT((#733));
#735=STYLED_ITEM('',(#734),#728);
#736=CARTESIAN_POINT('',(0.E0,-1.800000064274E1,0.E0));
#737=DIRECTION('',(0.E0,1.E0,0.E0));
#738=DIRECTION('',(1.E0,0.E0,0.E0));
#739=AXIS2_PLACEMENT_3D('',#736,#737,#738);
#740=CYLINDRICAL_SURFACE('',#739,5.E0);
#741=ORIENTED_EDGE('',*,*,#723,.F.);
#743=ORIENTED_EDGE('',*,*,#742,.T.);
#745=ORIENTED_EDGE('',*,*,#744,.T.);
#747=ORIENTED_EDGE('',*,*,#746,.F.);
#748=EDGE_LOOP('',(#741,#743,#745,#747));
#749=FACE_OUTER_BOUND('',#748,.F.);
#751=FILL_AREA_STYLE_COLOUR('',#9);
#752=FILL_AREA_STYLE('',(#751));
#753=SURFACE_STYLE_FILL_AREA(#752);
#754=SURFACE_SIDE_STYLE('',(#753));
#755=SURFACE_STYLE_USAGE(.BOTH.,#754);
#756=PRESENTATION_STYLE_ASSIGNMENT((#755));
#757=STYLED_ITEM('',(#756),#750);
#758=CARTESIAN_POINT('',(0.E0,-1.800000064274E1,0.E0));
#759=DIRECTION('',(0.E0,1.E0,0.E0));
#760=DIRECTION('',(1.E0,0.E0,0.E0));
#761=AXIS2_PLACEMENT_3D('',#758,#759,#760);
#762=CYLINDRICAL_SURFACE('',#761,5.E0);
#763=ORIENTED_EDGE('',*,*,#618,.F.);
#764=ORIENTED_EDGE('',*,*,#746,.T.);
#766=ORIENTED_EDGE('',*,*,#765,.T.);
#767=ORIENTED_EDGE('',*,*,#742,.F.);
#768=EDGE_LOOP('',(#763,#764,#766,#767));
#769=FACE_OUTER_BOUND('',#768,.F.);
#771=FILL_AREA_STYLE_COLOUR('',#9);
#772=FILL_AREA_STYLE('',(#771));
#773=SURFACE_STYLE_FILL_AREA(#772);
#774=SURFACE_SIDE_STYLE('',(#773));
#775=SURFACE_STYLE_USAGE(.BOTH.,#774);
#776=PRESENTATION_STYLE_ASSIGNMENT((#775));
#777=STYLED_ITEM('',(#776),#770);
#778=CARTESIAN_POINT('',(0.E0,2.E1,0.E0));
#779=DIRECTION('',(0.E0,1.E0,0.E0));
#780=DIRECTION('',(1.E0,0.E0,0.E0));
#781=AXIS2_PLACEMENT_3D('',#778,#779,#780);
#782=PLANE('',#781);
#783=ORIENTED_EDGE('',*,*,#765,.F.);
#784=ORIENTED_EDGE('',*,*,#744,.F.);
#785=EDGE_LOOP('',(#783,#784));
#786=FACE_OUTER_BOUND('',#785,.F.);
#788=ORIENTED_EDGE('',*,*,#787,.F.);
#790=ORIENTED_EDGE('',*,*,#789,.F.);
#791=EDGE_LOOP('',(#788,#790));
#792=FACE_BOUND('',#791,.F.);
#794=FILL_AREA_STYLE_COLOUR('',#9);
#795=FILL_AREA_STYLE('',(#794));
#796=SURFACE_STYLE_FILL_AREA(#795);
#797=SURFACE_SIDE_STYLE('',(#796));
#798=SURFACE_STYLE_USAGE(.BOTH.,#797);
#799=PRESENTATION_STYLE_ASSIGNMENT((#798));
#800=STYLED_ITEM('',(#799),#793);
#801=CARTESIAN_POINT('',(0.E0,0.E0,0.E0));
#802=DIRECTION('',(0.E0,1.E0,0.E0));
#803=DIRECTION('',(1.E0,0.E0,0.E0));
#804=AXIS2_PLACEMENT_3D('',#801,#802,#803);
#805=CYLINDRICAL_SURFACE('',#804,4.E0);
#807=ORIENTED_EDGE('',*,*,#806,.F.);
#808=ORIENTED_EDGE('',*,*,#787,.T.);
#810=ORIENTED_EDGE('',*,*,#809,.F.);
#811=ORIENTED_EDGE('',*,*,#445,.T.);
#812=EDGE_LOOP('',(#807,#808,#810,#811));
#813=FACE_OUTER_BOUND('',#812,.F.);
#815=FILL_AREA_STYLE_COLOUR('',#9);
#816=FILL_AREA_STYLE('',(#815));
#817=SURFACE_STYLE_FILL_AREA(#816);
#818=SURFACE_SIDE_STYLE('',(#817));
#819=SURFACE_STYLE_USAGE(.BOTH.,#818);
#820=PRESENTATION_STYLE_ASSIGNMENT((#819));
#821=STYLED_ITEM('',(#820),#814);
#822=CARTESIAN_POINT('',(0.E0,0.E0,0.E0));
#823=DIRECTION('',(0.E0,1.E0,0.E0));
#824=DIRECTION('',(1.E0,0.E0,0.E0));
#825=AXIS2_PLACEMENT_3D('',#822,#823,#824);
#826=CYLINDRICAL_SURFACE('',#825,4.E0);
#827=ORIENTED_EDGE('',*,*,#809,.T.);
#828=ORIENTED_EDGE('',*,*,#789,.T.);
#829=ORIENTED_EDGE('',*,*,#806,.T.);
#830=ORIENTED_EDGE('',*,*,#443,.T.);
#831=EDGE_LOOP('',(#827,#828,#829,#830));
#832=FACE_OUTER_BOUND('',#831,.F.);
#834=FILL_AREA_STYLE_COLOUR('',#9);
#835=FILL_AREA_STYLE('',(#834));
#836=SURFACE_STYLE_FILL_AREA(#835);
#837=SURFACE_SIDE_STYLE('',(#836));
#838=SURFACE_STYLE_USAGE(.BOTH.,#837);
#839=PRESENTATION_STYLE_ASSIGNMENT((#838));
#840=STYLED_ITEM('',(#839),#833);
#841=CLOSED_SHELL('',(#399,#423,#449,#472,#499,#518,#624,#728,#750,#770,#793,
#814,#833));
#842=MANIFOLD_SOLID_BREP('',#841);
#843=FILL_AREA_STYLE_COLOUR('',#9);
#844=FILL_AREA_STYLE('',(#843));
#845=SURFACE_STYLE_FILL_AREA(#844);
#846=SURFACE_SIDE_STYLE('',(#845));
#847=SURFACE_STYLE_USAGE(.BOTH.,#846);
#848=PRESENTATION_STYLE_ASSIGNMENT((#847));
#42=STYLED_ITEM('',(#848),#842);
#851=PLANE_ANGLE_MEASURE_WITH_UNIT(PLANE_ANGLE_MEASURE(1.745329251994E-2),#850);
#852=(CONVERSION_BASED_UNIT('DEGREE',#851)NAMED_UNIT(*)PLANE_ANGLE_UNIT());
#854=UNCERTAINTY_MEASURE_WITH_UNIT(LENGTH_MEASURE(1.E-2),#849,
'distance_accuracy_value',
'Maximum model space distance between geometric entities at asserted connectivities');
#856=CARTESIAN_POINT('',(0.E0,0.E0,0.E0));
#857=DIRECTION('',(0.E0,0.E0,1.E0));
#858=DIRECTION('',(1.E0,0.E0,0.E0));
#861=APPLICATION_CONTEXT('automotive_design');
#862=APPLICATION_PROTOCOL_DEFINITION('international standard',
'automotive_design',2001,#861);
#863=PRODUCT_DEFINITION_CONTEXT('part definition',#861,'design');
#864=PRODUCT_CONTEXT('',#861,'mechanical');
#865=PRODUCT('RESERVOIR','RESERVOIR','NOT SPECIFIED',(#864));
#866=PRODUCT_DEFINITION_FORMATION('1','LAST_VERSION',#865);
#874=DERIVED_UNIT_ELEMENT(#873,2.E0);
#875=DERIVED_UNIT((#874));
#876=MEASURE_REPRESENTATION_ITEM('surface area measure',AREA_MEASURE(
1.818069527196E4),#875);
#881=DERIVED_UNIT_ELEMENT(#880,3.E0);
#882=DERIVED_UNIT((#881));
#883=MEASURE_REPRESENTATION_ITEM('volume measure',VOLUME_MEASURE(
1.766136907692E4),#882);
#887=CARTESIAN_POINT('centre point',(-1.290185136454E-6,8.460715453315E-2,
-1.642302692634E-9));
#892=DERIVED_UNIT_ELEMENT(#891,2.E0);
#893=DERIVED_UNIT((#892));
#894=MEASURE_REPRESENTATION_ITEM('surface area measure',AREA_MEASURE(
1.818069527196E4),#893);
#899=DERIVED_UNIT_ELEMENT(#898,3.E0);
#900=DERIVED_UNIT((#899));
#901=MEASURE_REPRESENTATION_ITEM('volume measure',VOLUME_MEASURE(
1.766136907692E4),#900);
#905=CARTESIAN_POINT('centre point',(-1.290185136454E-6,8.460715453315E-2,
-1.642302692634E-9));
#915=CARTESIAN_POINT('centre point',(-1.290185136454E-6,8.460715453315E-2,
-1.642302692634E-9));
#919=CARTESIAN_POINT('',(0.E0,0.E0,0.E0));
#920=DIRECTION('',(0.E0,0.E0,1.E0));
#921=DIRECTION('',(1.E0,0.E0,0.E0));
#922=AXIS2_PLACEMENT_3D('',#919,#920,#921);
#923=ITEM_DEFINED_TRANSFORMATION('','',#859,#922);
#924=(REPRESENTATION_RELATIONSHIP('','',#860,#912)REPRESENTATION_RELATIONSHIP_WITH_TRANSFORMATION(#923)SHAPE_REPRESENTATION_RELATIONSHIP());
#925=CONTEXT_DEPENDENT_SHAPE_REPRESENTATION(#924,#914);
#927=CARTESIAN_POINT('',(0.E0,0.E0,5.E1));
#928=DIRECTION('',(0.E0,0.E0,1.E0));
#929=DIRECTION('',(0.E0,1.E0,0.E0));
#930=AXIS2_PLACEMENT_3D('',#927,#928,#929);
#932=CURVE_STYLE('',#47,POSITIVE_LENGTH_MEASURE(2.E-2),#30);
#933=PRESENTATION_STYLE_ASSIGNMENT((#932));
#934=STYLED_ITEM('',(#933),#931);
#935=CARTESIAN_POINT('',(0.E0,0.E0,5.E1));
#936=DIRECTION('',(0.E0,0.E0,1.E0));
#937=DIRECTION('',(0.E0,-1.E0,0.E0));
#938=AXIS2_PLACEMENT_3D('',#935,#936,#937);
#940=CURVE_STYLE('',#47,POSITIVE_LENGTH_MEASURE(2.E-2),#30);
#941=PRESENTATION_STYLE_ASSIGNMENT((#940));
#942=STYLED_ITEM('',(#941),#939);
#943=CARTESIAN_POINT('',(0.E0,0.E0,5.E1));
#944=DIRECTION('',(-1.E0,0.E0,0.E0));
#945=DIRECTION('',(0.E0,0.E0,1.E0));
#946=AXIS2_PLACEMENT_3D('',#943,#944,#945);
#948=CURVE_STYLE('',#47,POSITIVE_LENGTH_MEASURE(2.E-2),#30);
#949=PRESENTATION_STYLE_ASSIGNMENT((#948));
#950=STYLED_ITEM('',(#949),#947);
#951=CARTESIAN_POINT('',(0.E0,0.E0,5.E1));
#952=DIRECTION('',(1.E0,0.E0,0.E0));
#953=DIRECTION('',(0.E0,0.E0,1.E0));
#954=AXIS2_PLACEMENT_3D('',#951,#952,#953);
#956=CURVE_STYLE('',#47,POSITIVE_LENGTH_MEASURE(2.E-2),#30);
#957=PRESENTATION_STYLE_ASSIGNMENT((#956));
#958=STYLED_ITEM('',(#957),#955);
#959=CARTESIAN_POINT('',(0.E0,0.E0,5.E1));
#960=DIRECTION('',(0.E0,0.E0,-1.E0));
#961=DIRECTION('',(0.E0,1.E0,0.E0));
#962=AXIS2_PLACEMENT_3D('',#959,#960,#961);
#964=CURVE_STYLE('',#47,POSITIVE_LENGTH_MEASURE(2.E-2),#30);
#965=PRESENTATION_STYLE_ASSIGNMENT((#964));
#966=STYLED_ITEM('',(#965),#963);
#967=CARTESIAN_POINT('',(0.E0,0.E0,5.E1));
#968=DIRECTION('',(-1.E0,0.E0,0.E0));
#969=DIRECTION('',(0.E0,-1.E0,0.E0));
#970=AXIS2_PLACEMENT_3D('',#967,#968,#969);
#972=CURVE_STYLE('',#47,POSITIVE_LENGTH_MEASURE(2.E-2),#30);
#973=PRESENTATION_STYLE_ASSIGNMENT((#972));
#974=STYLED_ITEM('',(#973),#971);
#975=CARTESIAN_POINT('',(0.E0,0.E0,5.E1));
#976=DIRECTION('',(1.E0,0.E0,0.E0));
#977=DIRECTION('',(0.E0,1.E0,0.E0));
#978=AXIS2_PLACEMENT_3D('',#975,#976,#977);
#980=CURVE_STYLE('',#47,POSITIVE_LENGTH_MEASURE(2.E-2),#30);
#981=PRESENTATION_STYLE_ASSIGNMENT((#980));
#982=STYLED_ITEM('',(#981),#979);
#983=CARTESIAN_POINT('',(0.E0,0.E0,5.E1));
#984=DIRECTION('',(0.E0,0.E0,-1.E0));
#985=DIRECTION('',(0.E0,-1.E0,0.E0));
#986=AXIS2_PLACEMENT_3D('',#983,#984,#985);
#988=CURVE_STYLE('',#47,POSITIVE_LENGTH_MEASURE(2.E-2),#30);
#989=PRESENTATION_STYLE_ASSIGNMENT((#988));
#990=STYLED_ITEM('',(#989),#987);
#991=CARTESIAN_POINT('',(0.E0,1.3E1,5.E1));
#992=CARTESIAN_POINT('',(0.E0,-1.3E1,5.E1));
#993=VERTEX_POINT('',#991);
#994=VERTEX_POINT('',#992);
#995=CARTESIAN_POINT('',(0.E0,1.5E1,5.E1));
#996=CARTESIAN_POINT('',(0.E0,-1.5E1,5.E1));
#997=VERTEX_POINT('',#995);
#998=VERTEX_POINT('',#996);
#999=CARTESIAN_POINT('',(0.E0,0.E0,6.3E1));
#1000=VERTEX_POINT('',#999);
#1001=CARTESIAN_POINT('',(0.E0,0.E0,6.5E1));
#1002=VERTEX_POINT('',#1001);
#1003=CARTESIAN_POINT('',(0.E0,0.E0,5.E1));
#1004=DIRECTION('',(0.E0,0.E0,1.E0));
#1005=DIRECTION('',(0.E0,1.E0,0.E0));
#1006=AXIS2_PLACEMENT_3D('',#1003,#1004,#1005);
#1007=SPHERICAL_SURFACE('',#1006,1.3E1);
#1009=ORIENTED_EDGE('',*,*,#1008,.T.);
#1011=ORIENTED_EDGE('',*,*,#1010,.F.);
#1013=ORIENTED_EDGE('',*,*,#1012,.T.);
#1014=EDGE_LOOP('',(#1009,#1011,#1013));
#1015=FACE_OUTER_BOUND('',#1014,.F.);
#1017=FILL_AREA_STYLE_COLOUR('',#30);
#1018=FILL_AREA_STYLE('',(#1017));
#1019=SURFACE_STYLE_FILL_AREA(#1018);
#1020=SURFACE_SIDE_STYLE('',(#1019));
#1021=SURFACE_STYLE_USAGE(.BOTH.,#1020);
#1022=PRESENTATION_STYLE_ASSIGNMENT((#1021));
#1023=STYLED_ITEM('',(#1022),#1016);
#1024=CARTESIAN_POINT('',(-2.623800740089E1,-2.87E1,5.E1));
#1025=DIRECTION('',(0.E0,0.E0,1.E0));
#1026=DIRECTION('',(1.E0,0.E0,0.E0));
#1027=AXIS2_PLACEMENT_3D('',#1024,#1025,#1026);
#1028=PLANE('',#1027);
#1030=ORIENTED_EDGE('',*,*,#1029,.F.);
#1032=ORIENTED_EDGE('',*,*,#1031,.F.);
#1033=EDGE_LOOP('',(#1030,#1032));
#1034=FACE_OUTER_BOUND('',#1033,.F.);
#1035=ORIENTED_EDGE('',*,*,#1008,.F.);
#1037=ORIENTED_EDGE('',*,*,#1036,.F.);
#1038=EDGE_LOOP('',(#1035,#1037));
#1039=FACE_BOUND('',#1038,.F.);
#1041=FILL_AREA_STYLE_COLOUR('',#30);
#1042=FILL_AREA_STYLE('',(#1041));
#1043=SURFACE_STYLE_FILL_AREA(#1042);
#1044=SURFACE_SIDE_STYLE('',(#1043));
#1045=SURFACE_STYLE_USAGE(.BOTH.,#1044);
#1046=PRESENTATION_STYLE_ASSIGNMENT((#1045));
#1047=STYLED_ITEM('',(#1046),#1040);
#1048=CARTESIAN_POINT('',(0.E0,0.E0,5.E1));
#1049=DIRECTION('',(0.E0,0.E0,1.E0));
#1050=DIRECTION('',(0.E0,1.E0,0.E0));
#1051=AXIS2_PLACEMENT_3D('',#1048,#1049,#1050);
#1052=SPHERICAL_SURFACE('',#1051,1.3E1);
#1053=ORIENTED_EDGE('',*,*,#1036,.T.);
#1054=ORIENTED_EDGE('',*,*,#1012,.F.);
#1055=ORIENTED_EDGE('',*,*,#1010,.T.);
#1056=EDGE_LOOP('',(#1053,#1054,#1055));
#1057=FACE_OUTER_BOUND('',#1056,.F.);
#1059=FILL_AREA_STYLE_COLOUR('',#30);
#1060=FILL_AREA_STYLE('',(#1059));
#1061=SURFACE_STYLE_FILL_AREA(#1060);
#1062=SURFACE_SIDE_STYLE('',(#1061));
#1063=SURFACE_STYLE_USAGE(.BOTH.,#1062);
#1064=PRESENTATION_STYLE_ASSIGNMENT((#1063));
#1065=STYLED_ITEM('',(#1064),#1058);
#1066=CARTESIAN_POINT('',(0.E0,0.E0,5.E1));
#1067=DIRECTION('',(0.E0,0.E0,1.E0));
#1068=DIRECTION('',(0.E0,1.E0,0.E0));
#1069=AXIS2_PLACEMENT_3D('',#1066,#1067,#1068);
#1070=SPHERICAL_SURFACE('',#1069,1.5E1);
#1071=ORIENTED_EDGE('',*,*,#1029,.T.);
#1073=ORIENTED_EDGE('',*,*,#1072,.T.);
#1075=ORIENTED_EDGE('',*,*,#1074,.F.);
#1076=EDGE_LOOP('',(#1071,#1073,#1075));
#1077=FACE_OUTER_BOUND('',#1076,.F.);
#1079=FILL_AREA_STYLE_COLOUR('',#30);
#1080=FILL_AREA_STYLE('',(#1079));
#1081=SURFACE_STYLE_FILL_AREA(#1080);
#1082=SURFACE_SIDE_STYLE('',(#1081));
#1083=SURFACE_STYLE_USAGE(.BOTH.,#1082);
#1084=PRESENTATION_STYLE_ASSIGNMENT((#1083));
#1085=STYLED_ITEM('',(#1084),#1078);
#1086=CARTESIAN_POINT('',(0.E0,0.E0,5.E1));
#1087=DIRECTION('',(0.E0,0.E0,1.E0));
#1088=DIRECTION('',(0.E0,1.E0,0.E0));
#1089=AXIS2_PLACEMENT_3D('',#1086,#1087,#1088);
#1090=SPHERICAL_SURFACE('',#1089,1.5E1);
#1091=ORIENTED_EDGE('',*,*,#1031,.T.);
#1092=ORIENTED_EDGE('',*,*,#1074,.T.);
#1093=ORIENTED_EDGE('',*,*,#1072,.F.);
#1094=EDGE_LOOP('',(#1091,#1092,#1093));
#1095=FACE_OUTER_BOUND('',#1094,.F.);
#1097=FILL_AREA_STYLE_COLOUR('',#30);
#1098=FILL_AREA_STYLE('',(#1097));
#1099=SURFACE_STYLE_FILL_AREA(#1098);
#1100=SURFACE_SIDE_STYLE('',(#1099));
#1101=SURFACE_STYLE_USAGE(.BOTH.,#1100);
#1102=PRESENTATION_STYLE_ASSIGNMENT((#1101));
#1103=STYLED_ITEM('',(#1102),#1096);
#1104=CLOSED_SHELL('',(#1016,#1040,#1058,#1078,#1096));
#1105=MANIFOLD_SOLID_BREP('',#1104);
#1106=FILL_AREA_STYLE_COLOUR('',#30);
#1107=FILL_AREA_STYLE('',(#1106));
#1108=SURFACE_STYLE_FILL_AREA(#1107);
#1109=SURFACE_SIDE_STYLE('',(#1108));
#1110=SURFACE_STYLE_USAGE(.BOTH.,#1109);
#1111=PRESENTATION_STYLE_ASSIGNMENT((#1110));
#926=STYLED_ITEM('',(#1111),#1105);
#1114=PLANE_ANGLE_MEASURE_WITH_UNIT(PLANE_ANGLE_MEASURE(1.745329251994E-2),
#1113);
#1115=(CONVERSION_BASED_UNIT('DEGREE',#1114)NAMED_UNIT(*)PLANE_ANGLE_UNIT());
#1117=UNCERTAINTY_MEASURE_WITH_UNIT(LENGTH_MEASURE(1.E-2),#1112,
'distance_accuracy_value',
'Maximum model space distance between geometric entities at asserted connectivities');
#1119=CARTESIAN_POINT('',(0.E0,0.E0,0.E0));
#1120=DIRECTION('',(0.E0,0.E0,1.E0));
#1121=DIRECTION('',(1.E0,0.E0,0.E0));
#1124=PRODUCT_CONTEXT('',#861,'mechanical');
#1125=PRODUCT('SPHERICAL_COVER','SPHERICAL_COVER','NOT SPECIFIED',(#1124));
#1126=PRODUCT_DEFINITION_FORMATION('1','LAST_VERSION',#1125);
#1134=DERIVED_UNIT_ELEMENT(#1133,2.E0);
#1135=DERIVED_UNIT((#1134));
#1136=MEASURE_REPRESENTATION_ITEM('surface area measure',AREA_MEASURE(
2.651504199606E3),#1135);
#1141=DERIVED_UNIT_ELEMENT(#1140,3.E0);
#1142=DERIVED_UNIT((#1141));
#1143=MEASURE_REPRESENTATION_ITEM('volume measure',VOLUME_MEASURE(
2.467197430063E3),#1142);
#1147=CARTESIAN_POINT('centre point',(0.E0,0.E0,5.702376910018E1));
#1152=DERIVED_UNIT_ELEMENT(#1151,2.E0);
#1153=DERIVED_UNIT((#1152));
#1154=MEASURE_REPRESENTATION_ITEM('surface area measure',AREA_MEASURE(
2.651504199606E3),#1153);
#1159=DERIVED_UNIT_ELEMENT(#1158,3.E0);
#1160=DERIVED_UNIT((#1159));
#1161=MEASURE_REPRESENTATION_ITEM('volume measure',VOLUME_MEASURE(
2.467197430063E3),#1160);
#1165=CARTESIAN_POINT('centre point',(0.E0,0.E0,5.702376910018E1));
#1172=CARTESIAN_POINT('centre point',(0.E0,0.E0,5.702376910018E1));
#1176=CARTESIAN_POINT('',(0.E0,0.E0,0.E0));
#1177=DIRECTION('',(0.E0,0.E0,1.E0));
#1178=DIRECTION('',(1.E0,0.E0,0.E0));
#1179=AXIS2_PLACEMENT_3D('',#1176,#1177,#1178);
#1180=ITEM_DEFINED_TRANSFORMATION('','',#1122,#1179);
#1181=(REPRESENTATION_RELATIONSHIP('','',#1123,#912)REPRESENTATION_RELATIONSHIP_WITH_TRANSFORMATION(#1180)SHAPE_REPRESENTATION_RELATIONSHIP());
#1182=CONTEXT_DEPENDENT_SHAPE_REPRESENTATION(#1181,#1171);
#1185=CARTESIAN_POINT('centre point',(0.E0,-1.681716031227E-14,
-5.702376910018E1));
#1189=CARTESIAN_POINT('',(0.E0,-1.543054966926E-14,0.E0));
#1190=DIRECTION('',(0.E0,0.E0,-1.E0));
#1191=DIRECTION('',(-1.E0,0.E0,0.E0));
#1192=AXIS2_PLACEMENT_3D('',#1189,#1190,#1191);
#1193=ITEM_DEFINED_TRANSFORMATION('','',#1122,#1192);
#1194=(REPRESENTATION_RELATIONSHIP('','',#1123,#912)REPRESENTATION_RELATIONSHIP_WITH_TRANSFORMATION(#1193)SHAPE_REPRESENTATION_RELATIONSHIP());
#1195=CONTEXT_DEPENDENT_SHAPE_REPRESENTATION(#1194,#1184);
#1198=PLANE_ANGLE_MEASURE_WITH_UNIT(PLANE_ANGLE_MEASURE(1.745329251994E-2),
#1197);
#1199=(CONVERSION_BASED_UNIT('DEGREE',#1198)NAMED_UNIT(*)PLANE_ANGLE_UNIT());
#1201=UNCERTAINTY_MEASURE_WITH_UNIT(LENGTH_MEASURE(1.E-2),#1196,
'distance_accuracy_value',
'Maximum model space distance between geometric entities at asserted connectivities');
#1203=CARTESIAN_POINT('',(0.E0,0.E0,0.E0));
#1204=DIRECTION('',(0.E0,0.E0,1.E0));
#1205=DIRECTION('',(1.E0,0.E0,0.E0));
#1207=MECHANICAL_DESIGN_GEOMETRIC_PRESENTATION_REPRESENTATION('',(#50,#58,#66,
#74,#82,#89,#112,#135,#143,#151,#159,#167,#174,#198,#222,#229,#237,#245,#269,
#276,#300,#307,#315,#323,#331,#339,#346,#353,#406,#430,#456,#479,#506,#525,#631,
#735,#757,#777,#800,#821,#840,#42,#934,#942,#950,#958,#966,#974,#982,#990,#1023,
#1047,#1065,#1085,#1103,#926),#1202);
#1208=PRODUCT_DEFINITION_CONTEXT('part definition',#861,'design');
#1209=PRODUCT_CONTEXT('',#861,'mechanical');
#1210=PRODUCT('RESERVOIR_ASSEMBLY_ASM','RESERVOIR_ASSEMBLY_ASM','NOT SPECIFIED',
(#1209));
#1211=PRODUCT_DEFINITION_FORMATION('1','LAST_VERSION',#1210);
#1214=DERIVED_UNIT_ELEMENT(#1213,2.E0);
#1215=DERIVED_UNIT((#1214));
#1216=MEASURE_REPRESENTATION_ITEM('surface area measure',AREA_MEASURE(
2.348370367117E4),#1215);
#1221=DERIVED_UNIT_ELEMENT(#1220,3.E0);
#1222=DERIVED_UNIT((#1221));
#1223=MEASURE_REPRESENTATION_ITEM('volume measure',VOLUME_MEASURE(
2.259576393705E4),#1222);
#1227=CARTESIAN_POINT('centre point',(-1.008438392964E-6,6.613089900042E-2,
-1.283661577960E-9));
#1231=PRODUCT_RELATED_PRODUCT_CATEGORY('part','',(#1210,#865,#1125));
#1=DRAUGHTING_PRE_DEFINED_COLOUR('blue');
#2=COLOUR_RGB('',0.E0,2.6E-1,8.E-1);
#3=COLOUR_RGB('',0.E0,3.84E-1,1.E0);
#4=COLOUR_RGB('',0.E0,4.E-1,0.E0);
#5=COLOUR_RGB('',0.E0,6.E-1,1.E0);
#6=COLOUR_RGB('',0.E0,7.32E-1,1.E0);
#7=DRAUGHTING_PRE_DEFINED_COLOUR('green');
#8=COLOUR_RGB('',0.E0,1.E0,4.66E-1);
#9=COLOUR_RGB('',0.E0,1.E0,8.46E-1);
#10=DRAUGHTING_PRE_DEFINED_COLOUR('cyan');
#11=COLOUR_RGB('',6.4E-2,0.E0,8.E-2);
#12=COLOUR_RGB('',8.E-2,1.E-1,1.E-1);
#13=COLOUR_RGB('',2.E-1,2.E-1,2.E-1);
#14=COLOUR_RGB('',2.11E-1,9.82E-1,5.91E-1);
#15=COLOUR_RGB('',3.3E-1,0.E0,5.3E-1);
#16=COLOUR_RGB('',4.E-1,4.E-1,4.E-1);
#17=COLOUR_RGB('',4.E-1,4.E-1,1.E0);
#18=COLOUR_RGB('',4.7E-1,0.E0,0.E0);
#19=COLOUR_RGB('',5.3E-1,5.3E-1,1.E0);
#20=COLOUR_RGB('',6.35294E-1,6.86275E-1,7.4902E-1);
#21=COLOUR_RGB('',6.61E-1,6.61E-1,1.E0);
#22=COLOUR_RGB('',6.67E-1,0.E0,3.25E-1);
#23=COLOUR_RGB('',6.67E-1,1.E0,0.E0);
#24=COLOUR_RGB('',6.67E-1,1.E0,8.5E-1);
#25=COLOUR_RGB('',6.67E-1,1.E0,1.E0);
#26=COLOUR_RGB('',7.3E-1,4.7E-1,3.3E-1);
#27=COLOUR_RGB('',8.41E-1,1.E0,6.61E-1);
#28=DRAUGHTING_PRE_DEFINED_COLOUR('red');
#29=DRAUGHTING_PRE_DEFINED_COLOUR('magenta');
#30=COLOUR_RGB('',1.E0,1.94E-1,2.16E-1);
#31=COLOUR_RGB('',1.E0,2.7E-1,0.E0);
#32=COLOUR_RGB('',1.E0,4.E-1,1.E0);
#33=COLOUR_RGB('',1.E0,4.7E-1,0.E0);
#34=COLOUR_RGB('',1.E0,6.61E-1,0.E0);
#35=COLOUR_RGB('',1.E0,6.61E-1,1.E0);
#36=COLOUR_RGB('',1.E0,6.7E-1,6.7E-1);
#37=COLOUR_RGB('',1.E0,8.41E-1,0.E0);
#38=COLOUR_RGB('',1.E0,9.71E-1,2.16E-1);
#39=DRAUGHTING_PRE_DEFINED_COLOUR('yellow');
#40=COLOUR_RGB('',1.E0,1.E0,6.67E-1);
#41=DRAUGHTING_PRE_DEFINED_COLOUR('white');
#55=CIRCLE('',#54,1.3E1);
#63=CIRCLE('',#62,1.3E1);
#71=CIRCLE('',#70,1.5E1);
#79=CIRCLE('',#78,1.5E1);
#109=B_SPLINE_CURVE_WITH_KNOTS('',3,(#90,#91,#92,#93,#94,#95,#96,#97,#98,#99,
#100,#101,#102,#103,#104,#105,#106,#107,#108),.UNSPECIFIED.,.F.,.F.,(4,1,1,1,1,
1,1,1,1,1,1,1,1,1,1,1,4),(0.E0,6.25E-2,1.25E-1,1.875E-1,2.5E-1,3.125E-1,3.75E-1,
4.375E-1,5.E-1,5.625E-1,6.25E-1,6.875E-1,7.5E-1,8.125E-1,8.75E-1,9.375E-1,1.E0),
.UNSPECIFIED.);
#132=B_SPLINE_CURVE_WITH_KNOTS('',3,(#113,#114,#115,#116,#117,#118,#119,#120,
#121,#122,#123,#124,#125,#126,#127,#128,#129,#130,#131),.UNSPECIFIED.,.F.,.F.,
(4,1,1,1,1,1,1,1,1,1,1,1,1,1,1,1,4),(0.E0,6.25E-2,1.25E-1,1.875E-1,2.5E-1,
3.125E-1,3.75E-1,4.375E-1,5.E-1,5.625E-1,6.25E-1,6.875E-1,7.5E-1,8.125E-1,
8.75E-1,9.375E-1,1.E0),.UNSPECIFIED.);
#140=CIRCLE('',#139,1.3E1);
#148=CIRCLE('',#147,1.3E1);
#156=CIRCLE('',#155,1.5E1);
#164=CIRCLE('',#163,1.5E1);
#195=B_SPLINE_CURVE_WITH_KNOTS('',3,(#175,#176,#177,#178,#179,#180,#181,#182,
#183,#184,#185,#186,#187,#188,#189,#190,#191,#192,#193,#194),.UNSPECIFIED.,.F.,
.F.,(4,1,1,1,1,1,1,1,1,1,1,1,1,1,1,1,1,4),(0.E0,5.882352941176E-2,
1.176470588235E-1,1.764705882353E-1,2.352941176471E-1,2.941176470588E-1,
3.529411764706E-1,4.117647058824E-1,4.705882352941E-1,5.294117647059E-1,
5.882352941176E-1,6.470588235294E-1,7.058823529412E-1,7.647058823529E-1,
8.235294117647E-1,8.823529411765E-1,9.411764705882E-1,1.E0),.UNSPECIFIED.);
#219=B_SPLINE_CURVE_WITH_KNOTS('',3,(#199,#200,#201,#202,#203,#204,#205,#206,
#207,#208,#209,#210,#211,#212,#213,#214,#215,#216,#217,#218),.UNSPECIFIED.,.F.,
.F.,(4,1,1,1,1,1,1,1,1,1,1,1,1,1,1,1,1,4),(0.E0,5.882352941176E-2,
1.176470588235E-1,1.764705882353E-1,2.352941176471E-1,2.941176470588E-1,
3.529411764706E-1,4.117647058824E-1,4.705882352941E-1,5.294117647059E-1,
5.882352941176E-1,6.470588235294E-1,7.058823529412E-1,7.647058823529E-1,
8.235294117647E-1,8.823529411765E-1,9.411764705882E-1,1.E0),.UNSPECIFIED.);
#234=CIRCLE('',#233,2.000000000007E0);
#242=CIRCLE('',#241,2.000000000007E0);
#266=B_SPLINE_CURVE_WITH_KNOTS('',3,(#246,#247,#248,#249,#250,#251,#252,#253,
#254,#255,#256,#257,#258,#259,#260,#261,#262,#263,#264,#265),.UNSPECIFIED.,.F.,
.F.,(4,1,1,1,1,1,1,1,1,1,1,1,1,1,1,1,1,4),(0.E0,5.882352941176E-2,
1.176470588235E-1,1.764705882353E-1,2.352941176471E-1,2.941176470588E-1,
3.529411764706E-1,4.117647058824E-1,4.705882352941E-1,5.294117647059E-1,
5.882352941176E-1,6.470588235294E-1,7.058823529412E-1,7.647058823529E-1,
8.235294117647E-1,8.823529411765E-1,9.411764705882E-1,1.E0),.UNSPECIFIED.);
#297=B_SPLINE_CURVE_WITH_KNOTS('',3,(#277,#278,#279,#280,#281,#282,#283,#284,
#285,#286,#287,#288,#289,#290,#291,#292,#293,#294,#295,#296),.UNSPECIFIED.,.F.,
.F.,(4,1,1,1,1,1,1,1,1,1,1,1,1,1,1,1,1,4),(0.E0,5.882352941176E-2,
1.176470588235E-1,1.764705882353E-1,2.352941176471E-1,2.941176470588E-1,
3.529411764706E-1,4.117647058824E-1,4.705882352941E-1,5.294117647059E-1,
5.882352941176E-1,6.470588235294E-1,7.058823529412E-1,7.647058823529E-1,
8.235294117647E-1,8.823529411765E-1,9.411764705882E-1,1.E0),.UNSPECIFIED.);
#312=CIRCLE('',#311,4.E0);
#320=CIRCLE('',#319,4.E0);
#328=CIRCLE('',#327,5.E0);
#336=CIRCLE('',#335,5.E0);
#389=EDGE_CURVE('',#356,#357,#55,.T.);
#391=EDGE_CURVE('',#356,#364,#46,.T.);
#393=EDGE_CURVE('',#364,#365,#140,.T.);
#395=EDGE_CURVE('',#357,#365,#86,.T.);
#399=ADVANCED_FACE('',(#398),#388,.F.);
#412=EDGE_CURVE('',#360,#361,#71,.T.);
#414=EDGE_CURVE('',#361,#360,#79,.T.);
#419=EDGE_CURVE('',#357,#356,#63,.T.);
#423=ADVANCED_FACE('',(#417,#422),#411,.F.);
#438=EDGE_CURVE('',#365,#364,#148,.T.);
#443=EDGE_CURVE('',#370,#371,#109,.T.);
#445=EDGE_CURVE('',#371,#370,#132,.T.);
#449=ADVANCED_FACE('',(#442,#448),#435,.F.);
#462=EDGE_CURVE('',#368,#369,#156,.T.);
#464=EDGE_CURVE('',#369,#368,#164,.T.);
#472=ADVANCED_FACE('',(#467,#471),#461,.T.);
#486=EDGE_CURVE('',#360,#368,#171,.T.);
#489=EDGE_CURVE('',#361,#369,#226,.T.);
#493=EDGE_CURVE('',#380,#381,#195,.T.);
#495=EDGE_CURVE('',#381,#380,#219,.T.);
#499=ADVANCED_FACE('',(#492,#498),#484,.T.);
#518=ADVANCED_FACE('',(#517),#511,.T.);
#616=EDGE_CURVE('',#380,#382,#234,.T.);
#618=EDGE_CURVE('',#382,#383,#297,.T.);
#620=EDGE_CURVE('',#381,#383,#242,.T.);
#624=ADVANCED_FACE('',(#623),#614,.F.);
#723=EDGE_CURVE('',#383,#382,#266,.T.);
#728=ADVANCED_FACE('',(#727),#720,.F.);
#742=EDGE_CURVE('',#383,#379,#273,.T.);
#744=EDGE_CURVE('',#379,#378,#336,.T.);
#746=EDGE_CURVE('',#382,#378,#304,.T.);
#750=ADVANCED_FACE('',(#749),#740,.T.);
#765=EDGE_CURVE('',#378,#379,#328,.T.);
#770=ADVANCED_FACE('',(#769),#762,.T.);
#787=EDGE_CURVE('',#374,#375,#312,.T.);
#789=EDGE_CURVE('',#375,#374,#320,.T.);
#793=ADVANCED_FACE('',(#786,#792),#782,.T.);
#806=EDGE_CURVE('',#374,#370,#350,.T.);
#809=EDGE_CURVE('',#371,#375,#343,.T.);
#814=ADVANCED_FACE('',(#813),#805,.F.);
#833=ADVANCED_FACE('',(#832),#826,.F.);
#849=(LENGTH_UNIT()NAMED_UNIT(*)SI_UNIT(.MILLI.,.METRE.));
#850=(NAMED_UNIT(*)PLANE_ANGLE_UNIT()SI_UNIT($,.RADIAN.));
#853=(NAMED_UNIT(*)SI_UNIT($,.STERADIAN.)SOLID_ANGLE_UNIT());
#855=(GEOMETRIC_REPRESENTATION_CONTEXT(3)GLOBAL_UNCERTAINTY_ASSIGNED_CONTEXT((
#854))GLOBAL_UNIT_ASSIGNED_CONTEXT((#849,#852,#853))REPRESENTATION_CONTEXT
('ID1','3'));
#859=AXIS2_PLACEMENT_3D('',#856,#857,#858);
#860=ADVANCED_BREP_SHAPE_REPRESENTATION('',(#859,#842),#855);
#867=PRODUCT_DEFINITION('part definition','',#866,#863);
#868=PRODUCT_DEFINITION_SHAPE('','SHAPE FOR RESERVOIR.',#867);
#869=SHAPE_ASPECT('','solid data associated with RESERVOIR',#868,.F.);
#870=PROPERTY_DEFINITION('',
'shape for solid data with which properties are associated',#869);
#871=SHAPE_REPRESENTATION('',(#842),#855);
#872=SHAPE_DEFINITION_REPRESENTATION(#870,#871);
#873=(LENGTH_UNIT()NAMED_UNIT(*)SI_UNIT(.MILLI.,.METRE.));
#877=PROPERTY_DEFINITION('geometric validation property','area of RESERVOIR',
#869);
#878=REPRESENTATION('surface area',(#876),#855);
#879=PROPERTY_DEFINITION_REPRESENTATION(#877,#878);
#880=(LENGTH_UNIT()NAMED_UNIT(*)SI_UNIT(.MILLI.,.METRE.));
#884=PROPERTY_DEFINITION('geometric validation property','volume of RESERVOIR',
#869);
#885=REPRESENTATION('volume',(#883),#855);
#886=PROPERTY_DEFINITION_REPRESENTATION(#884,#885);
#888=PROPERTY_DEFINITION('geometric validation property',
'centroid of RESERVOIR',#869);
#889=REPRESENTATION('centroid',(#887),#855);
#890=PROPERTY_DEFINITION_REPRESENTATION(#888,#889);
#891=(LENGTH_UNIT()NAMED_UNIT(*)SI_UNIT(.MILLI.,.METRE.));
#895=PROPERTY_DEFINITION('geometric validation property','area of RESERVOIR',
#868);
#896=REPRESENTATION('surface area',(#894),#855);
#897=PROPERTY_DEFINITION_REPRESENTATION(#895,#896);
#898=(LENGTH_UNIT()NAMED_UNIT(*)SI_UNIT(.MILLI.,.METRE.));
#902=PROPERTY_DEFINITION('geometric validation property','volume of RESERVOIR',
#868);
#903=REPRESENTATION('volume',(#901),#855);
#904=PROPERTY_DEFINITION_REPRESENTATION(#902,#903);
#906=PROPERTY_DEFINITION('geometric validation property',
'centroid of RESERVOIR',#868);
#907=REPRESENTATION('centroid',(#905),#855);
#908=PROPERTY_DEFINITION_REPRESENTATION(#906,#907);
#909=SHAPE_DEFINITION_REPRESENTATION(#868,#860);
#910=SHAPE_DEFINITION_REPRESENTATION(#911,#912);
#911=PRODUCT_DEFINITION_SHAPE('','SHAPE FOR RESERVOIR_ASSEMBLY_ASM.',#1212);
#912=SHAPE_REPRESENTATION('',(#922,#1179,#1192,#1206),#1202);
#913=NEXT_ASSEMBLY_USAGE_OCCURRENCE('0','Next assembly relationship',
'RESERVOIR',#1212,#867,$);
#914=PRODUCT_DEFINITION_SHAPE('Placement #0',
'Placement of RESERVOIR with respect to RESERVOIR_ASSEMBLY_ASM',#913);
#916=PROPERTY_DEFINITION('geometric validation property',
'centroid of RESERVOIR',#914);
#917=REPRESENTATION('centroid',(#915),#855);
#918=PROPERTY_DEFINITION_REPRESENTATION(#916,#917);
#931=CIRCLE('',#930,1.3E1);
#939=CIRCLE('',#938,1.3E1);
#947=CIRCLE('',#946,1.3E1);
#955=CIRCLE('',#954,1.3E1);
#963=CIRCLE('',#962,1.5E1);
#971=CIRCLE('',#970,1.5E1);
#979=CIRCLE('',#978,1.5E1);
#987=CIRCLE('',#986,1.5E1);
#1008=EDGE_CURVE('',#993,#994,#931,.T.);
#1010=EDGE_CURVE('',#1000,#994,#955,.T.);
#1012=EDGE_CURVE('',#1000,#993,#947,.T.);
#1016=ADVANCED_FACE('',(#1015),#1007,.F.);
#1029=EDGE_CURVE('',#997,#998,#963,.T.);
#1031=EDGE_CURVE('',#998,#997,#987,.T.);
#1036=EDGE_CURVE('',#994,#993,#939,.T.);
#1040=ADVANCED_FACE('',(#1034,#1039),#1028,.F.);
#1058=ADVANCED_FACE('',(#1057),#1052,.F.);
#1072=EDGE_CURVE('',#998,#1002,#971,.T.);
#1074=EDGE_CURVE('',#997,#1002,#979,.T.);
#1078=ADVANCED_FACE('',(#1077),#1070,.T.);
#1096=ADVANCED_FACE('',(#1095),#1090,.T.);
#1112=(LENGTH_UNIT()NAMED_UNIT(*)SI_UNIT(.MILLI.,.METRE.));
#1113=(NAMED_UNIT(*)PLANE_ANGLE_UNIT()SI_UNIT($,.RADIAN.));
#1116=(NAMED_UNIT(*)SI_UNIT($,.STERADIAN.)SOLID_ANGLE_UNIT());
#1118=(GEOMETRIC_REPRESENTATION_CONTEXT(3)GLOBAL_UNCERTAINTY_ASSIGNED_CONTEXT((
#1117))GLOBAL_UNIT_ASSIGNED_CONTEXT((#1112,#1115,#1116))REPRESENTATION_CONTEXT(
'ID2','3'));
#1122=AXIS2_PLACEMENT_3D('',#1119,#1120,#1121);
#1123=ADVANCED_BREP_SHAPE_REPRESENTATION('',(#1122,#1105),#1118);
#1127=PRODUCT_DEFINITION('part definition','',#1126,#863);
#1128=PRODUCT_DEFINITION_SHAPE('','SHAPE FOR SPHERICAL_COVER.',#1127);
#1129=SHAPE_ASPECT('','solid data associated with SPHERICAL_COVER',#1128,.F.);
#1130=PROPERTY_DEFINITION('',
'shape for solid data with which properties are associated',#1129);
#1131=SHAPE_REPRESENTATION('',(#1105),#1118);
#1132=SHAPE_DEFINITION_REPRESENTATION(#1130,#1131);
#1133=(LENGTH_UNIT()NAMED_UNIT(*)SI_UNIT(.MILLI.,.METRE.));
#1137=PROPERTY_DEFINITION('geometric validation property',
'area of SPHERICAL_COVER',#1129);
#1138=REPRESENTATION('surface area',(#1136),#1118);
#1139=PROPERTY_DEFINITION_REPRESENTATION(#1137,#1138);
#1140=(LENGTH_UNIT()NAMED_UNIT(*)SI_UNIT(.MILLI.,.METRE.));
#1144=PROPERTY_DEFINITION('geometric validation property',
'volume of SPHERICAL_COVER',#1129);
#1145=REPRESENTATION('volume',(#1143),#1118);
#1146=PROPERTY_DEFINITION_REPRESENTATION(#1144,#1145);
#1148=PROPERTY_DEFINITION('geometric validation property',
'centroid of SPHERICAL_COVER',#1129);
#1149=REPRESENTATION('centroid',(#1147),#1118);
#1150=PROPERTY_DEFINITION_REPRESENTATION(#1148,#1149);
#1151=(LENGTH_UNIT()NAMED_UNIT(*)SI_UNIT(.MILLI.,.METRE.));
#1155=PROPERTY_DEFINITION('geometric validation property',
'area of SPHERICAL_COVER',#1128);
#1156=REPRESENTATION('surface area',(#1154),#1118);
#1157=PROPERTY_DEFINITION_REPRESENTATION(#1155,#1156);
#1158=(LENGTH_UNIT()NAMED_UNIT(*)SI_UNIT(.MILLI.,.METRE.));
#1162=PROPERTY_DEFINITION('geometric validation property',
'volume of SPHERICAL_COVER',#1128);
#1163=REPRESENTATION('volume',(#1161),#1118);
#1164=PROPERTY_DEFINITION_REPRESENTATION(#1162,#1163);
#1166=PROPERTY_DEFINITION('geometric validation property',
'centroid of SPHERICAL_COVER',#1128);
#1167=REPRESENTATION('centroid',(#1165),#1118);
#1168=PROPERTY_DEFINITION_REPRESENTATION(#1166,#1167);
#1169=SHAPE_DEFINITION_REPRESENTATION(#1128,#1123);
#1170=NEXT_ASSEMBLY_USAGE_OCCURRENCE('1','Next assembly relationship',
'SPHERICAL_COVER',#1212,#1127,$);
#1171=PRODUCT_DEFINITION_SHAPE('Placement #1',
'Placement of SPHERICAL_COVER with respect to RESERVOIR_ASSEMBLY_ASM',#1170);
#1173=PROPERTY_DEFINITION('geometric validation property',
'centroid of SPHERICAL_COVER',#1171);
#1174=REPRESENTATION('centroid',(#1172),#1118);
#1175=PROPERTY_DEFINITION_REPRESENTATION(#1173,#1174);
#1183=NEXT_ASSEMBLY_USAGE_OCCURRENCE('2','Next assembly relationship',
'SPHERICAL_COVER',#1212,#1127,$);
#1184=PRODUCT_DEFINITION_SHAPE('Placement #2',
'Placement of SPHERICAL_COVER with respect to RESERVOIR_ASSEMBLY_ASM',#1183);
#1186=PROPERTY_DEFINITION('geometric validation property',
'centroid of SPHERICAL_COVER',#1184);
#1187=REPRESENTATION('centroid',(#1185),#1118);
#1188=PROPERTY_DEFINITION_REPRESENTATION(#1186,#1187);
#1196=(LENGTH_UNIT()NAMED_UNIT(*)SI_UNIT(.MILLI.,.METRE.));
#1197=(NAMED_UNIT(*)PLANE_ANGLE_UNIT()SI_UNIT($,.RADIAN.));
#1200=(NAMED_UNIT(*)SI_UNIT($,.STERADIAN.)SOLID_ANGLE_UNIT());
#1202=(GEOMETRIC_REPRESENTATION_CONTEXT(3)GLOBAL_UNCERTAINTY_ASSIGNED_CONTEXT((
#1201))GLOBAL_UNIT_ASSIGNED_CONTEXT((#1196,#1199,#1200))REPRESENTATION_CONTEXT(
'ID3','3'));
#1206=AXIS2_PLACEMENT_3D('',#1203,#1204,#1205);
#1212=PRODUCT_DEFINITION('part definition','',#1211,#1208);
#1213=(LENGTH_UNIT()NAMED_UNIT(*)SI_UNIT(.MILLI.,.METRE.));
#1217=PROPERTY_DEFINITION('geometric validation property',
'area of RESERVOIR_ASSEMBLY_ASM',#911);
#1218=REPRESENTATION('surface area',(#1216),#1202);
#1219=PROPERTY_DEFINITION_REPRESENTATION(#1217,#1218);
#1220=(LENGTH_UNIT()NAMED_UNIT(*)SI_UNIT(.MILLI.,.METRE.));
#1224=PROPERTY_DEFINITION('geometric validation property',
'volume of RESERVOIR_ASSEMBLY_ASM',#911);
#1225=REPRESENTATION('volume',(#1223),#1202);
#1226=PROPERTY_DEFINITION_REPRESENTATION(#1224,#1225);
#1228=PROPERTY_DEFINITION('geometric validation property',
'centroid of RESERVOIR_ASSEMBLY_ASM',#911);
#1229=REPRESENTATION('centroid',(#1227),#1202);
#1230=PROPERTY_DEFINITION_REPRESENTATION(#1228,#1229);
ENDSEC;
END-ISO-10303-21;
